<?xml version="1.0" encoding="UTF-8" standalone="no"?>
<!DOCTYPE svg PUBLIC "-//W3C//DTD SVG 1.1//EN" "http://www.w3.org/Graphics/SVG/1.1/DTD/svg11.dtd">
<svg xmlns="http://www.w3.org/2000/svg" xmlns:xlink="http://www.w3.org/1999/xlink" version="1.1" width="612pt" height="792pt" viewBox="0 0 612 792">
<g enable-background="new">
<path transform="matrix(.45,0,0,.45,0,0)" d="M 0 0 L 1360 0 L 1360 1760 L 0 1760 Z " fill="#ffffff"/>
<g id="Layer-1" data-name="Div">
<path transform="matrix(.45,0,0,.45,18,54)" d="M 0 957.7 L 0 8 C 0 3.6 3.6 0 8 0 L 40 0 L 40 957.7 Z " fill="#ffffff"/>
<path transform="matrix(.45,0,0,.45,18,54)" stroke-width="1" stroke-linecap="butt" stroke-miterlimit="4" stroke-linejoin="miter" fill="none" stroke="#333333" d="M 0 957.7 L 0 8 C 0 3.6 3.6 0 8 0 L 40 0 L 40 957.7 Z "/>
<path transform="matrix(.45,0,0,.45,18,54)" d="M 40 1617 L 8 1617 C 3.6 1617 0 1614 0 1609 L 0 957.7 L 40 957.7 Z " fill="#ffffff"/>
<path transform="matrix(.45,0,0,.45,18,54)" stroke-width="1" stroke-linecap="butt" stroke-miterlimit="4" stroke-linejoin="miter" fill="none" stroke="#333333" d="M 40 1617 L 8 1617 C 3.6 1617 0 1614 0 1609 L 0 957.7 L 40 957.7 Z "/>
<path transform="matrix(.45,0,0,.45,18,54)" stroke-width="1" stroke-linecap="butt" stroke-miterlimit="4" stroke-linejoin="miter" fill="none" stroke="#333333" d="M 40 0 L 1292 0 C 1296 0 1300 3.6 1300 8 L 1300 957.7 L 40 957.7 Z "/>
<path transform="matrix(.45,0,0,.45,18,54)" stroke-width="1" stroke-linecap="butt" stroke-miterlimit="4" stroke-linejoin="miter" fill="none" stroke="#333333" d="M 1300 957.7 L 1300 1609 C 1300 1614 1296 1617 1292 1617 L 40 1617 L 40 957.7 Z "/>
<path transform="matrix(0,-.022499999,.022499999,0,28.619999,283.815)" d="M 127 -220 L 127 -110 L 127 0 L 93 0 L 93 -110 L 93 -220 L 8 -220 L 8 -234 L 8 -248 L 212 -248 L 212 -234 L 212 -220 L 127 -220 Z " fill="#333333"/>
<path transform="matrix(0,-.022499999,.022499999,0,28.619999,279.18)" d="M 114 -163 C 36 -179 61 -72 57 0 L 25 0 L 24 -190 L 54 -190 C 55 -178 53 -161 56 -151 C 62 -178 79 -200 114 -192 L 114 -177.5 L 114 -163 Z " fill="#333333"/>
<path transform="matrix(0,-.022499999,.022499999,0,28.619999,276.5025)" d="M 141 -36 C 126 -15 110 5 73 4 C 37 3 15 -17 15 -53 C 14 -117 78 -116 140 -116 C 143 -151 131 -170 99 -170 C 75 -169 58 -163 57 -139 L 24 -142 C 29 -179 57 -194 100 -194 C 145 -194 172 -174 172 -130 L 172 -89 L 172 -48 C 171 -28 179 -16 200 -21 L 200 -11 L 200 -1 C 169 8 139 -3 141 -36 Z M 48 -53 C 48 -33 60 -20 80 -20 C 121 -23 143 -49 140 -94 C 97 -92 48 -99 48 -53 Z " fill="#333333"/>
<path transform="matrix(0,-.022499999,.022499999,0,28.619999,272.0025)" d="M 24 -231 L 24 -246 L 24 -261 L 56 -261 L 56 -246 L 56 -231 L 24 -231 Z M 24 0 L 24 -95 L 24 -190 L 56 -190 L 56 -95 L 56 0 L 24 0 Z " fill="#333333"/>
<path transform="matrix(0,-.022499999,.022499999,0,28.619999,270.225)" d="M 117 -194 C 206 -198 170 -78 177 0 L 145 0 L 145 -60.5 L 145 -121 C 145 -152 137 -170 106 -169 C 34 -167 62 -67 57 0 L 25 0 L 24 -190 L 54 -190 C 55 -180 53 -166 56 -158 C 67 -180 85 -193 117 -194 Z " fill="#333333"/>
<path transform="matrix(0,-.022499999,.022499999,0,28.619999,265.725)" d="M 24 -231 L 24 -246 L 24 -261 L 56 -261 L 56 -246 L 56 -231 L 24 -231 Z M 24 0 L 24 -95 L 24 -190 L 56 -190 L 56 -95 L 56 0 L 24 0 Z " fill="#333333"/>
<path transform="matrix(0,-.022499999,.022499999,0,28.619999,263.9475)" d="M 117 -194 C 206 -198 170 -78 177 0 L 145 0 L 145 -60.5 L 145 -121 C 145 -152 137 -170 106 -169 C 34 -167 62 -67 57 0 L 25 0 L 24 -190 L 54 -190 C 55 -180 53 -166 56 -158 C 67 -180 85 -193 117 -194 Z " fill="#333333"/>
<path transform="matrix(0,-.022499999,.022499999,0,28.619999,259.4475)" d="M 177 -190 C 167 -65 218 103 67 71 C 44 65 29 51 23 28 L 55 23 C 70 70 155 55 144 -5 L 144 -20 L 144 -35 C 133 -14 115 1 83 1 C 29 1 15 -40 15 -95 C 15 -151 31 -192 86 -193 C 115 -194 134 -177 145 -158 C 146 -168 145 -181 147 -190 L 177 -190 Z M 94 -22 C 130 -22 144 -54 144 -95 C 144 -137 130 -170 94 -170 C 55 -170 48 -136 48 -95 C 48 -54 54 -22 94 -22 Z " fill="#333333"/>
<path transform="matrix(0,-.022499999,.022499999,0,28.619999,651.14999)" d="M 30 -248 C 117 -247 221 -263 221 -173 C 221 -95 144 -93 63 -97 L 63 -48.5 L 63 0 L 30 0 L 30 -124 L 30 -248 Z M 63 -123 C 120 -123 187 -112 187 -173 C 187 -232 119 -220 63 -221 L 63 -172 L 63 -123 Z " fill="#333333"/>
<path transform="matrix(0,-.022499999,.022499999,0,28.619999,645.74996)" d="M 114 -163 C 36 -179 61 -72 57 0 L 25 0 L 24 -190 L 54 -190 C 55 -178 53 -161 56 -151 C 62 -178 79 -200 114 -192 L 114 -177.5 L 114 -163 Z " fill="#333333"/>
<path transform="matrix(0,-.022499999,.022499999,0,28.619999,643.07247)" d="M 100 -194 C 163 -194 186 -152 184 -88 L 49 -88 C 49 -48 63 -21 102 -20 C 128 -19 145 -32 151 -49 L 179 -41 C 168 -13 142 4 102 4 C 44 4 14 -33 15 -96 C 16 -157 41 -194 100 -194 Z M 152 -113 C 158 -173 76 -190 55 -141 C 52 -134 49 -124 49 -113 L 152 -113 Z " fill="#333333"/>
<path transform="matrix(0,-.022499999,.022499999,0,28.619999,638.57247)" d="M 85 -194 C 116 -194 133 -181 145 -161 L 144 -261 L 176 -261 L 177 0 L 147 0 C 145 -10 147 -23 144 -31 C 134 -8 116 4 85 4 C 32 4 16 -35 15 -94 C 15 -160 38 -194 85 -194 Z M 94 -170 C 54 -170 48 -136 48 -95 C 48 -55 54 -21 93 -21 C 135 -21 144 -53 144 -97 C 144 -139 135 -171 94 -170 Z " fill="#333333"/>
<path transform="matrix(0,-.022499999,.022499999,0,28.619999,634.07247)" d="M 24 -231 L 24 -246 L 24 -261 L 56 -261 L 56 -246 L 56 -231 L 24 -231 Z M 24 0 L 24 -95 L 24 -190 L 56 -190 L 56 -95 L 56 0 L 24 0 Z " fill="#333333"/>
<path transform="matrix(0,-.022499999,.022499999,0,28.619999,632.295)" d="M 96 -169 C 56 -169 48 -136 48 -96 C 48 -56 57 -21 96 -21 C 120 -21 137 -35 139 -59 L 171 -57 C 165 -20 140 4 97 4 C 38 4 21 -37 15 -95 C 5 -188 116 -226 162 -159 C 166 -152 167 -145 169 -137 L 137 -134 C 133 -155 121 -169 96 -169 Z " fill="#333333"/>
<path transform="matrix(0,-.022499999,.022499999,0,28.619999,628.245)" d="M 59 -47 C 57 -23 77 -18 97 -25 L 97 -13 L 97 -1 C 64 9 27 4 27 -40 L 27 -103.5 L 27 -167 L 5 -167 L 5 -178.5 L 5 -190 L 29 -190 L 38 -233 L 59 -233 L 59 -211.5 L 59 -190 L 94 -190 L 94 -178.5 L 94 -167 L 59 -167 L 59 -107 L 59 -47 Z " fill="#333333"/>
<path transform="matrix(0,-.022499999,.022499999,0,28.619999,625.995)" d="M 24 -231 L 24 -246 L 24 -261 L 56 -261 L 56 -246 L 56 -231 L 24 -231 Z M 24 0 L 24 -95 L 24 -190 L 56 -190 L 56 -95 L 56 0 L 24 0 Z " fill="#333333"/>
<path transform="matrix(0,-.022499999,.022499999,0,28.619999,624.21749)" d="M 100 -194 C 162 -195 185 -157 185 -95 C 186 -32 158 4 99 4 C 40 4 16 -35 15 -95 C 15 -161 43 -194 100 -194 Z M 99 -20 C 143 -19 152 -51 152 -95 C 152 -138 144 -170 101 -170 C 58 -170 48 -138 48 -95 C 48 -52 58 -21 99 -20 Z " fill="#333333"/>
<path transform="matrix(0,-.022499999,.022499999,0,28.619999,619.71749)" d="M 117 -194 C 206 -198 170 -78 177 0 L 145 0 L 145 -60.5 L 145 -121 C 145 -152 137 -170 106 -169 C 34 -167 62 -67 57 0 L 25 0 L 24 -190 L 54 -190 C 55 -180 53 -166 56 -158 C 67 -180 85 -193 117 -194 Z " fill="#333333"/>
</g>
<g id="Layer-1" data-name="Div">
<path transform="matrix(.044721,0,0,.044721,217.0485,27.094502)" d="M 266 0 L 226 0 L 170 -210 L 115 0 L 75 0 L 2 -248 L 37 -248 L 96 -30 L 111 -94 L 154 -248 L 186 -248 L 245 -30 L 304 -248 L 339 -248 Z " fill="#333333"/>
<path transform="matrix(.044721,0,0,.044721,231.89586,27.094502)" d="M 100 -194 C 163 -194 186 -152 184 -88 L 49 -88 C 49 -48 63 -21 102 -20 C 128 -19 145 -32 151 -49 L 179 -41 C 168 -13 142 4 102 4 C 44 4 14 -33 15 -96 C 16 -157 41 -194 100 -194 Z M 152 -113 C 158 -173 76 -190 55 -141 C 52 -134 49 -124 49 -113 L 152 -113 Z " fill="#333333"/>
<path transform="matrix(.044721,0,0,.044721,240.84006,27.094502)" d="M 24 -231 L 24 -246 L 24 -261 L 56 -261 L 56 -246 L 56 -231 L 24 -231 Z M 24 0 L 24 -95 L 24 -190 L 56 -190 L 56 -95 L 56 0 L 24 0 Z " fill="#333333"/>
<path transform="matrix(.044721,0,0,.044721,244.37302,27.094502)" d="M 177 -190 C 167 -65 218 103 67 71 C 44 65 29 51 23 28 L 55 23 C 70 70 155 55 144 -5 L 144 -20 L 144 -35 C 133 -14 115 1 83 1 C 29 1 15 -40 15 -95 C 15 -151 31 -192 86 -193 C 115 -194 134 -177 145 -158 C 146 -168 145 -181 147 -190 L 177 -190 Z M 94 -22 C 130 -22 144 -54 144 -95 C 144 -137 130 -170 94 -170 C 55 -170 48 -136 48 -95 C 48 -54 54 -22 94 -22 Z " fill="#333333"/>
<path transform="matrix(.044721,0,0,.044721,253.31723,27.094502)" d="M 106 -169 C 34 -169 62 -67 57 0 L 25 0 L 25 -130.5 L 25 -261 L 57 -261 L 56 -158 C 68 -179 84 -194 117 -194 C 206 -194 170 -78 177 0 L 145 0 L 145 -60.5 L 145 -121 C 147 -153 137 -170 106 -169 Z " fill="#333333"/>
<path transform="matrix(.044721,0,0,.044721,262.2614,27.094502)" d="M 59 -47 C 57 -23 77 -18 97 -25 L 97 -13 L 97 -1 C 64 9 27 4 27 -40 L 27 -103.5 L 27 -167 L 5 -167 L 5 -178.5 L 5 -190 L 29 -190 L 38 -233 L 59 -233 L 59 -211.5 L 59 -190 L 94 -190 L 94 -178.5 L 94 -167 L 59 -167 L 59 -107 L 59 -47 Z " fill="#333333"/>
<path transform="matrix(.044721,0,0,.044721,266.73353,27.094502)" d="M 100 -194 C 163 -194 186 -152 184 -88 L 49 -88 C 49 -48 63 -21 102 -20 C 128 -19 145 -32 151 -49 L 179 -41 C 168 -13 142 4 102 4 C 44 4 14 -33 15 -96 C 16 -157 41 -194 100 -194 Z M 152 -113 C 158 -173 76 -190 55 -141 C 52 -134 49 -124 49 -113 L 152 -113 Z " fill="#333333"/>
<path transform="matrix(.044721,0,0,.044721,275.67774,27.094502)" d="M 85 -194 C 116 -194 133 -181 145 -161 L 144 -261 L 176 -261 L 177 0 L 147 0 C 145 -10 147 -23 144 -31 C 134 -8 116 4 85 4 C 32 4 16 -35 15 -94 C 15 -160 38 -194 85 -194 Z M 94 -170 C 54 -170 48 -136 48 -95 C 48 -55 54 -21 93 -21 C 135 -21 144 -53 144 -97 C 144 -139 135 -171 94 -170 Z " fill="#333333"/>
<path transform="matrix(.044721,0,0,.044721,284.62193,27.094502)" d="" fill="#333333"/>
<path transform="matrix(.044721,0,0,.044721,289.08,27.094502)" d="M 30 0 L 30 -124 L 30 -248 L 63 -248 L 63 -137.5 L 63 -27 L 188 -27 L 188 -13.5 L 188 0 L 30 0 Z " fill="#333333"/>
<path transform="matrix(.044721,0,0,.044721,298.0242,27.094502)" d="M 30 -248 C 148 -255 246 -240 243 -126 C 240 -48 200 0 122 0 L 30 0 L 30 -124 L 30 -248 Z M 63 -27 C 152 -19 209 -43 209 -126 C 209 -209 149 -227 63 -221 L 63 -124 L 63 -27 Z " fill="#333333"/>
<path transform="matrix(.044721,0,0,.044721,309.60694,27.094502)" d="M 205 0 L 177 -72 L 64 -72 L 36 0 L 1 0 L 102 -248 L 140 -248 L 239 0 L 205 0 Z M 167 -99 L 120 -222 C 108 -177 89 -140 74 -99 L 167 -99 Z " fill="#333333"/>
<path transform="matrix(.044721,0,0,.044721,319.44557,27.094502)" d="" fill="#333333"/>
<path transform="matrix(.044721,0,0,.044721,323.90998,27.094502)" d="M 30 0 L 30 -124 L 30 -248 L 217 -248 L 217 -234 L 217 -220 L 63 -220 L 63 -180.5 L 63 -141 L 207 -141 L 207 -127.5 L 207 -114 L 63 -114 L 63 -70.5 L 63 -27 L 225 -27 L 225 -13.5 L 225 0 L 30 0 Z " fill="#333333"/>
<path transform="matrix(.044721,0,0,.044721,334.643,27.094502)" d="M 117 -194 C 206 -198 170 -78 177 0 L 145 0 L 145 -60.5 L 145 -121 C 145 -152 137 -170 106 -169 C 34 -167 62 -67 57 0 L 25 0 L 24 -190 L 54 -190 C 55 -180 53 -166 56 -158 C 67 -180 85 -193 117 -194 Z " fill="#333333"/>
<path transform="matrix(.044721,0,0,.044721,343.58723,27.094502)" d="M 135 -143 C 132 -177 49 -181 48 -143 C 63 -90 163 -131 167 -53 C 171 25 17 21 10 -45 L 38 -50 C 42 -14 135 -5 136 -50 C 126 -106 23 -65 18 -140 C 14 -197 100 -203 140 -182 C 152 -175 161 -163 164 -147 Z " fill="#333333"/>
<path transform="matrix(.044721,0,0,.044721,351.637,27.094502)" d="M 100 -194 C 163 -194 186 -152 184 -88 L 49 -88 C 49 -48 63 -21 102 -20 C 128 -19 145 -32 151 -49 L 179 -41 C 168 -13 142 4 102 4 C 44 4 14 -33 15 -96 C 16 -157 41 -194 100 -194 Z M 152 -113 C 158 -173 76 -190 55 -141 C 52 -134 49 -124 49 -113 L 152 -113 Z " fill="#333333"/>
<path transform="matrix(.044721,0,0,.044721,360.58119,27.094502)" d="M 210 -169 C 143 -166 172 -64 166 0 L 135 0 L 135 -60.5 L 135 -121 C 135 -150 130 -171 100 -169 C 34 -165 62 -65 56 0 L 25 0 L 24 -190 L 54 -190 C 55 -180 53 -166 56 -158 C 66 -202 155 -208 163 -158 C 174 -179 190 -193 221 -194 C 306 -196 268 -75 276 0 L 245 0 L 245 -60.5 L 245 -121 C 245 -150 240 -170 210 -169 Z " fill="#333333"/>
<path transform="matrix(.044721,0,0,.044721,373.95277,27.094502)" d="M 115 -194 C 168 -194 184 -155 185 -96 C 185 -30 162 4 115 4 C 84 3 66 -7 56 -30 L 54 0 L 23 0 L 24 -261 L 56 -261 L 56 -210.5 L 56 -160 C 66 -183 84 -194 115 -194 Z M 107 -20 C 147 -20 152 -54 152 -95 C 152 -135 147 -170 107 -169 C 65 -169 56 -137 56 -93 C 56 -50 66 -20 107 -20 Z " fill="#333333"/>
<path transform="matrix(.044721,0,0,.044721,382.89698,27.094502)" d="M 24 0 L 24 -130.5 L 24 -261 L 56 -261 L 56 -130.5 L 56 0 L 24 0 Z " fill="#333333"/>
<path transform="matrix(.044721,0,0,.044721,386.42994,27.094502)" d="M 100 -194 C 163 -194 186 -152 184 -88 L 49 -88 C 49 -48 63 -21 102 -20 C 128 -19 145 -32 151 -49 L 179 -41 C 168 -13 142 4 102 4 C 44 4 14 -33 15 -96 C 16 -157 41 -194 100 -194 Z M 152 -113 C 158 -173 76 -190 55 -141 C 52 -134 49 -124 49 -113 L 152 -113 Z " fill="#333333"/>
</g>
<g id="Layer-1" data-name="Div">
<path transform="matrix(.45,0,0,.45,81,115.965007)" d="M 28.2 7.1 C 30.3 3.2 35.6 0 40 0 L 120 0 C 124.4 0 129.7 3.2 131.8 7.1 L 156.2 52.9 C 158.3 56.8 158.3 63.2 156.2 67.1 L 131.8 112.9 C 129.7 116.8 124.4 120 120 120 L 40 120 C 35.6 120 30.3 116.8 28.2 112.9 L 3.8 67.1 C 1.7 63.2 1.7 56.8 3.8 52.9 Z " fill="#ffffff"/>
<path transform="matrix(.45,0,0,.45,81,115.965007)" stroke-width="1" stroke-linecap="butt" stroke-miterlimit="4" stroke-linejoin="miter" fill="none" stroke="#333333" d="M 28.2 7.1 C 30.3 3.2 35.6 0 40 0 L 120 0 C 124.4 0 129.7 3.2 131.8 7.1 L 156.2 52.9 C 158.3 56.8 158.3 63.2 156.2 67.1 L 131.8 112.9 C 129.7 116.8 124.4 120 120 120 L 40 120 C 35.6 120 30.3 116.8 28.2 112.9 L 3.8 67.1 C 1.7 63.2 1.7 56.8 3.8 52.9 Z "/>
<path transform="matrix(.022499999,0,0,.022499999,99.0225,139.725)" d="M 30 0 L 30 -124 L 30 -248 L 217 -248 L 217 -234 L 217 -220 L 63 -220 L 63 -180.5 L 63 -141 L 207 -141 L 207 -127.5 L 207 -114 L 63 -114 L 63 -70.5 L 63 -27 L 225 -27 L 225 -13.5 L 225 0 L 30 0 Z " fill="#333333"/>
<path transform="matrix(.022499999,0,0,.022499999,104.4225,139.725)" d="M 117 -194 C 206 -198 170 -78 177 0 L 145 0 L 145 -60.5 L 145 -121 C 145 -152 137 -170 106 -169 C 34 -167 62 -67 57 0 L 25 0 L 24 -190 L 54 -190 C 55 -180 53 -166 56 -158 C 67 -180 85 -193 117 -194 Z " fill="#333333"/>
<path transform="matrix(.022499999,0,0,.022499999,108.9225,139.725)" d="M 135 -143 C 132 -177 49 -181 48 -143 C 63 -90 163 -131 167 -53 C 171 25 17 21 10 -45 L 38 -50 C 42 -14 135 -5 136 -50 C 126 -106 23 -65 18 -140 C 14 -197 100 -203 140 -182 C 152 -175 161 -163 164 -147 Z " fill="#333333"/>
<path transform="matrix(.022499999,0,0,.022499999,112.972499,139.725)" d="M 100 -194 C 163 -194 186 -152 184 -88 L 49 -88 C 49 -48 63 -21 102 -20 C 128 -19 145 -32 151 -49 L 179 -41 C 168 -13 142 4 102 4 C 44 4 14 -33 15 -96 C 16 -157 41 -194 100 -194 Z M 152 -113 C 158 -173 76 -190 55 -141 C 52 -134 49 -124 49 -113 L 152 -113 Z " fill="#333333"/>
<path transform="matrix(.022499999,0,0,.022499999,117.472499,139.725)" d="M 210 -169 C 143 -166 172 -64 166 0 L 135 0 L 135 -60.5 L 135 -121 C 135 -150 130 -171 100 -169 C 34 -165 62 -65 56 0 L 25 0 L 24 -190 L 54 -190 C 55 -180 53 -166 56 -158 C 66 -202 155 -208 163 -158 C 174 -179 190 -193 221 -194 C 306 -196 268 -75 276 0 L 245 0 L 245 -60.5 L 245 -121 C 245 -150 240 -170 210 -169 Z " fill="#333333"/>
<path transform="matrix(.022499999,0,0,.022499999,124.2,139.725)" d="M 115 -194 C 168 -194 184 -155 185 -96 C 185 -30 162 4 115 4 C 84 3 66 -7 56 -30 L 54 0 L 23 0 L 24 -261 L 56 -261 L 56 -210.5 L 56 -160 C 66 -183 84 -194 115 -194 Z M 107 -20 C 147 -20 152 -54 152 -95 C 152 -135 147 -170 107 -169 C 65 -169 56 -137 56 -93 C 56 -50 66 -20 107 -20 Z " fill="#333333"/>
<path transform="matrix(.022499999,0,0,.022499999,128.7,139.725)" d="M 24 0 L 24 -130.5 L 24 -261 L 56 -261 L 56 -130.5 L 56 0 L 24 0 Z " fill="#333333"/>
<path transform="matrix(.022499999,0,0,.022499999,130.4775,139.725)" d="M 100 -194 C 163 -194 186 -152 184 -88 L 49 -88 C 49 -48 63 -21 102 -20 C 128 -19 145 -32 151 -49 L 179 -41 C 168 -13 142 4 102 4 C 44 4 14 -33 15 -96 C 16 -157 41 -194 100 -194 Z M 152 -113 C 158 -173 76 -190 55 -141 C 52 -134 49 -124 49 -113 L 152 -113 Z " fill="#333333"/>
<path transform="matrix(.022499999,0,0,.022499999,134.9775,139.725)" d="" fill="#333333"/>
<path transform="matrix(.022499999,0,0,.022499999,85.7925,149.445)" d="M 210 -169 C 143 -166 172 -64 166 0 L 135 0 L 135 -60.5 L 135 -121 C 135 -150 130 -171 100 -169 C 34 -165 62 -65 56 0 L 25 0 L 24 -190 L 54 -190 C 55 -180 53 -166 56 -158 C 66 -202 155 -208 163 -158 C 174 -179 190 -193 221 -194 C 306 -196 268 -75 276 0 L 245 0 L 245 -60.5 L 245 -121 C 245 -150 240 -170 210 -169 Z " fill="#333333"/>
<path transform="matrix(.022499999,0,0,.022499999,92.520008,149.445)" d="M 100 -194 C 163 -194 186 -152 184 -88 L 49 -88 C 49 -48 63 -21 102 -20 C 128 -19 145 -32 151 -49 L 179 -41 C 168 -13 142 4 102 4 C 44 4 14 -33 15 -96 C 16 -157 41 -194 100 -194 Z M 152 -113 C 158 -173 76 -190 55 -141 C 52 -134 49 -124 49 -113 L 152 -113 Z " fill="#333333"/>
<path transform="matrix(.022499999,0,0,.022499999,97.020008,149.445)" d="M 210 -169 C 143 -166 172 -64 166 0 L 135 0 L 135 -60.5 L 135 -121 C 135 -150 130 -171 100 -169 C 34 -165 62 -65 56 0 L 25 0 L 24 -190 L 54 -190 C 55 -180 53 -166 56 -158 C 66 -202 155 -208 163 -158 C 174 -179 190 -193 221 -194 C 306 -196 268 -75 276 0 L 245 0 L 245 -60.5 L 245 -121 C 245 -150 240 -170 210 -169 Z " fill="#333333"/>
<path transform="matrix(.022499999,0,0,.022499999,103.747509,149.445)" d="M 115 -194 C 168 -194 184 -155 185 -96 C 185 -30 162 4 115 4 C 84 3 66 -7 56 -30 L 54 0 L 23 0 L 24 -261 L 56 -261 L 56 -210.5 L 56 -160 C 66 -183 84 -194 115 -194 Z M 107 -20 C 147 -20 152 -54 152 -95 C 152 -135 147 -170 107 -169 C 65 -169 56 -137 56 -93 C 56 -50 66 -20 107 -20 Z " fill="#333333"/>
<path transform="matrix(.022499999,0,0,.022499999,108.247509,149.445)" d="M 100 -194 C 163 -194 186 -152 184 -88 L 49 -88 C 49 -48 63 -21 102 -20 C 128 -19 145 -32 151 -49 L 179 -41 C 168 -13 142 4 102 4 C 44 4 14 -33 15 -96 C 16 -157 41 -194 100 -194 Z M 152 -113 C 158 -173 76 -190 55 -141 C 52 -134 49 -124 49 -113 L 152 -113 Z " fill="#333333"/>
<path transform="matrix(.022499999,0,0,.022499999,112.7475,149.445)" d="M 114 -163 C 36 -179 61 -72 57 0 L 25 0 L 24 -190 L 54 -190 C 55 -178 53 -161 56 -151 C 62 -178 79 -200 114 -192 L 114 -177.5 L 114 -163 Z " fill="#333333"/>
<path transform="matrix(.022499999,0,0,.022499999,115.425,149.445)" d="M 135 -143 C 132 -177 49 -181 48 -143 C 63 -90 163 -131 167 -53 C 171 25 17 21 10 -45 L 38 -50 C 42 -14 135 -5 136 -50 C 126 -106 23 -65 18 -140 C 14 -197 100 -203 140 -182 C 152 -175 161 -163 164 -147 Z " fill="#333333"/>
<path transform="matrix(.022499999,0,0,.022499999,119.475009,149.445)" d="" fill="#333333"/>
<path transform="matrix(.022499999,0,0,.022499999,121.725,149.445)" d="M 59 -47 C 57 -23 77 -18 97 -25 L 97 -13 L 97 -1 C 64 9 27 4 27 -40 L 27 -103.5 L 27 -167 L 5 -167 L 5 -178.5 L 5 -190 L 29 -190 L 38 -233 L 59 -233 L 59 -211.5 L 59 -190 L 94 -190 L 94 -178.5 L 94 -167 L 59 -167 L 59 -107 L 59 -47 Z " fill="#333333"/>
<path transform="matrix(.022499999,0,0,.022499999,123.975,149.445)" d="M 114 -163 C 36 -179 61 -72 57 0 L 25 0 L 24 -190 L 54 -190 C 55 -178 53 -161 56 -151 C 62 -178 79 -200 114 -192 L 114 -177.5 L 114 -163 Z " fill="#333333"/>
<path transform="matrix(.022499999,0,0,.022499999,126.6525,149.445)" d="M 141 -36 C 126 -15 110 5 73 4 C 37 3 15 -17 15 -53 C 14 -117 78 -116 140 -116 C 143 -151 131 -170 99 -170 C 75 -169 58 -163 57 -139 L 24 -142 C 29 -179 57 -194 100 -194 C 145 -194 172 -174 172 -130 L 172 -89 L 172 -48 C 171 -28 179 -16 200 -21 L 200 -11 L 200 -1 C 169 8 139 -3 141 -36 Z M 48 -53 C 48 -33 60 -20 80 -20 C 121 -23 143 -49 140 -94 C 97 -92 48 -99 48 -53 Z " fill="#333333"/>
<path transform="matrix(.022499999,0,0,.022499999,131.1525,149.445)" d="M 24 -231 L 24 -246 L 24 -261 L 56 -261 L 56 -246 L 56 -231 L 24 -231 Z M 24 0 L 24 -95 L 24 -190 L 56 -190 L 56 -95 L 56 0 L 24 0 Z " fill="#333333"/>
<path transform="matrix(.022499999,0,0,.022499999,132.93,149.445)" d="M 117 -194 C 206 -198 170 -78 177 0 L 145 0 L 145 -60.5 L 145 -121 C 145 -152 137 -170 106 -169 C 34 -167 62 -67 57 0 L 25 0 L 24 -190 L 54 -190 C 55 -180 53 -166 56 -158 C 67 -180 85 -193 117 -194 Z " fill="#333333"/>
<path transform="matrix(.022499999,0,0,.022499999,137.43,149.445)" d="M 24 -231 L 24 -246 L 24 -261 L 56 -261 L 56 -246 L 56 -231 L 24 -231 Z M 24 0 L 24 -95 L 24 -190 L 56 -190 L 56 -95 L 56 0 L 24 0 Z " fill="#333333"/>
<path transform="matrix(.022499999,0,0,.022499999,139.2075,149.445)" d="M 117 -194 C 206 -198 170 -78 177 0 L 145 0 L 145 -60.5 L 145 -121 C 145 -152 137 -170 106 -169 C 34 -167 62 -67 57 0 L 25 0 L 24 -190 L 54 -190 C 55 -180 53 -166 56 -158 C 67 -180 85 -193 117 -194 Z " fill="#333333"/>
<path transform="matrix(.022499999,0,0,.022499999,143.70749,149.445)" d="M 177 -190 C 167 -65 218 103 67 71 C 44 65 29 51 23 28 L 55 23 C 70 70 155 55 144 -5 L 144 -20 L 144 -35 C 133 -14 115 1 83 1 C 29 1 15 -40 15 -95 C 15 -151 31 -192 86 -193 C 115 -194 134 -177 145 -158 C 146 -168 145 -181 147 -190 L 177 -190 Z M 94 -22 C 130 -22 144 -54 144 -95 C 144 -137 130 -170 94 -170 C 55 -170 48 -136 48 -95 C 48 -54 54 -22 94 -22 Z " fill="#333333"/>
</g>
<g id="Layer-1" data-name="Div">
<path transform="matrix(.45,0,0,.45,497.25,79.965)" d="M 150 108 C 150 114.6 116.4 120 75 120 C 33.6 120 0 114.6 0 108 L 0 12 C 0 5.4 33.6 0 75 0 C 116.4 0 150 5.4 150 12 Z " fill="#99d2f2"/>
<path transform="matrix(.45,0,0,.45,497.25,79.965)" stroke-width="1" stroke-linecap="butt" stroke-miterlimit="4" stroke-linejoin="miter" fill="none" stroke="#333333" d="M 150 108 C 150 114.6 116.4 120 75 120 C 33.6 120 0 114.6 0 108 L 0 12 C 0 5.4 33.6 0 75 0 C 116.4 0 150 5.4 150 12 Z "/>
<path transform="matrix(.45,0,0,.45,497.25,79.965)" stroke-width="1" stroke-linecap="butt" stroke-miterlimit="4" stroke-linejoin="miter" fill="none" stroke="#333333" d="M 150 12 C 150 18.6 116.4 24 75 24 C 33.6 24 0 18.6 0 12 "/>
<path transform="matrix(.022499999,0,0,.022499999,508.995,109.125)" d="M 30 0 L 30 -124 L 30 -248 L 63 -248 L 63 -137.5 L 63 -27 L 188 -27 L 188 -13.5 L 188 0 L 30 0 Z " fill="#333333"/>
<path transform="matrix(.022499999,0,0,.022499999,513.495,109.125)" d="M 30 -248 C 148 -255 246 -240 243 -126 C 240 -48 200 0 122 0 L 30 0 L 30 -124 L 30 -248 Z M 63 -27 C 152 -19 209 -43 209 -126 C 209 -209 149 -227 63 -221 L 63 -124 L 63 -27 Z " fill="#333333"/>
<path transform="matrix(.022499999,0,0,.022499999,519.3225,109.125)" d="M 205 0 L 177 -72 L 64 -72 L 36 0 L 1 0 L 102 -248 L 140 -248 L 239 0 L 205 0 Z M 167 -99 L 120 -222 C 108 -177 89 -140 74 -99 L 167 -99 Z " fill="#333333"/>
<path transform="matrix(.022499999,0,0,.022499999,524.2725,109.125)" d="" fill="#333333"/>
<path transform="matrix(.022499999,0,0,.022499999,526.5225,109.125)" d="M 59 -47 C 57 -23 77 -18 97 -25 L 97 -13 L 97 -1 C 64 9 27 4 27 -40 L 27 -103.5 L 27 -167 L 5 -167 L 5 -178.5 L 5 -190 L 29 -190 L 38 -233 L 59 -233 L 59 -211.5 L 59 -190 L 94 -190 L 94 -178.5 L 94 -167 L 59 -167 L 59 -107 L 59 -47 Z " fill="#333333"/>
<path transform="matrix(.022499999,0,0,.022499999,528.7725,109.125)" d="M 114 -163 C 36 -179 61 -72 57 0 L 25 0 L 24 -190 L 54 -190 C 55 -178 53 -161 56 -151 C 62 -178 79 -200 114 -192 L 114 -177.5 L 114 -163 Z " fill="#333333"/>
<path transform="matrix(.022499999,0,0,.022499999,531.45,109.125)" d="M 141 -36 C 126 -15 110 5 73 4 C 37 3 15 -17 15 -53 C 14 -117 78 -116 140 -116 C 143 -151 131 -170 99 -170 C 75 -169 58 -163 57 -139 L 24 -142 C 29 -179 57 -194 100 -194 C 145 -194 172 -174 172 -130 L 172 -89 L 172 -48 C 171 -28 179 -16 200 -21 L 200 -11 L 200 -1 C 169 8 139 -3 141 -36 Z M 48 -53 C 48 -33 60 -20 80 -20 C 121 -23 143 -49 140 -94 C 97 -92 48 -99 48 -53 Z " fill="#333333"/>
<path transform="matrix(.022499999,0,0,.022499999,535.95,109.125)" d="M 24 -231 L 24 -246 L 24 -261 L 56 -261 L 56 -246 L 56 -231 L 24 -231 Z M 24 0 L 24 -95 L 24 -190 L 56 -190 L 56 -95 L 56 0 L 24 0 Z " fill="#333333"/>
<path transform="matrix(.022499999,0,0,.022499999,537.72756,109.125)" d="M 117 -194 C 206 -198 170 -78 177 0 L 145 0 L 145 -60.5 L 145 -121 C 145 -152 137 -170 106 -169 C 34 -167 62 -67 57 0 L 25 0 L 24 -190 L 54 -190 C 55 -180 53 -166 56 -158 C 67 -180 85 -193 117 -194 Z " fill="#333333"/>
<path transform="matrix(.022499999,0,0,.022499999,542.22756,109.125)" d="M 24 -231 L 24 -246 L 24 -261 L 56 -261 L 56 -246 L 56 -231 L 24 -231 Z M 24 0 L 24 -95 L 24 -190 L 56 -190 L 56 -95 L 56 0 L 24 0 Z " fill="#333333"/>
<path transform="matrix(.022499999,0,0,.022499999,544.005,109.125)" d="M 117 -194 C 206 -198 170 -78 177 0 L 145 0 L 145 -60.5 L 145 -121 C 145 -152 137 -170 106 -169 C 34 -167 62 -67 57 0 L 25 0 L 24 -190 L 54 -190 C 55 -180 53 -166 56 -158 C 67 -180 85 -193 117 -194 Z " fill="#333333"/>
<path transform="matrix(.022499999,0,0,.022499999,548.505,109.125)" d="M 177 -190 C 167 -65 218 103 67 71 C 44 65 29 51 23 28 L 55 23 C 70 70 155 55 144 -5 L 144 -20 L 144 -35 C 133 -14 115 1 83 1 C 29 1 15 -40 15 -95 C 15 -151 31 -192 86 -193 C 115 -194 134 -177 145 -158 C 146 -168 145 -181 147 -190 L 177 -190 Z M 94 -22 C 130 -22 144 -54 144 -95 C 144 -137 130 -170 94 -170 C 55 -170 48 -136 48 -95 C 48 -54 54 -22 94 -22 Z " fill="#333333"/>
<path transform="matrix(.022499999,0,0,.022499999,553.005,109.125)" d="" fill="#333333"/>
<path transform="matrix(.022499999,0,0,.022499999,517.725,118.845)" d="M 85 -194 C 116 -194 133 -181 145 -161 L 144 -261 L 176 -261 L 177 0 L 147 0 C 145 -10 147 -23 144 -31 C 134 -8 116 4 85 4 C 32 4 16 -35 15 -94 C 15 -160 38 -194 85 -194 Z M 94 -170 C 54 -170 48 -136 48 -95 C 48 -55 54 -21 93 -21 C 135 -21 144 -53 144 -97 C 144 -139 135 -171 94 -170 Z " fill="#333333"/>
<path transform="matrix(.022499999,0,0,.022499999,522.225,118.845)" d="M 141 -36 C 126 -15 110 5 73 4 C 37 3 15 -17 15 -53 C 14 -117 78 -116 140 -116 C 143 -151 131 -170 99 -170 C 75 -169 58 -163 57 -139 L 24 -142 C 29 -179 57 -194 100 -194 C 145 -194 172 -174 172 -130 L 172 -89 L 172 -48 C 171 -28 179 -16 200 -21 L 200 -11 L 200 -1 C 169 8 139 -3 141 -36 Z M 48 -53 C 48 -33 60 -20 80 -20 C 121 -23 143 -49 140 -94 C 97 -92 48 -99 48 -53 Z " fill="#333333"/>
<path transform="matrix(.022499999,0,0,.022499999,526.725,118.845)" d="M 59 -47 C 57 -23 77 -18 97 -25 L 97 -13 L 97 -1 C 64 9 27 4 27 -40 L 27 -103.5 L 27 -167 L 5 -167 L 5 -178.5 L 5 -190 L 29 -190 L 38 -233 L 59 -233 L 59 -211.5 L 59 -190 L 94 -190 L 94 -178.5 L 94 -167 L 59 -167 L 59 -107 L 59 -47 Z " fill="#333333"/>
<path transform="matrix(.022499999,0,0,.022499999,528.975,118.845)" d="M 141 -36 C 126 -15 110 5 73 4 C 37 3 15 -17 15 -53 C 14 -117 78 -116 140 -116 C 143 -151 131 -170 99 -170 C 75 -169 58 -163 57 -139 L 24 -142 C 29 -179 57 -194 100 -194 C 145 -194 172 -174 172 -130 L 172 -89 L 172 -48 C 171 -28 179 -16 200 -21 L 200 -11 L 200 -1 C 169 8 139 -3 141 -36 Z M 48 -53 C 48 -33 60 -20 80 -20 C 121 -23 143 -49 140 -94 C 97 -92 48 -99 48 -53 Z " fill="#333333"/>
<path transform="matrix(.022499999,0,0,.022499999,533.475,118.845)" d="M 135 -143 C 132 -177 49 -181 48 -143 C 63 -90 163 -131 167 -53 C 171 25 17 21 10 -45 L 38 -50 C 42 -14 135 -5 136 -50 C 126 -106 23 -65 18 -140 C 14 -197 100 -203 140 -182 C 152 -175 161 -163 164 -147 Z " fill="#333333"/>
<path transform="matrix(.022499999,0,0,.022499999,537.52499,118.845)" d="M 100 -194 C 163 -194 186 -152 184 -88 L 49 -88 C 49 -48 63 -21 102 -20 C 128 -19 145 -32 151 -49 L 179 -41 C 168 -13 142 4 102 4 C 44 4 14 -33 15 -96 C 16 -157 41 -194 100 -194 Z M 152 -113 C 158 -173 76 -190 55 -141 C 52 -134 49 -124 49 -113 L 152 -113 Z " fill="#333333"/>
<path transform="matrix(.022499999,0,0,.022499999,542.02499,118.845)" d="M 59 -47 C 57 -23 77 -18 97 -25 L 97 -13 L 97 -1 C 64 9 27 4 27 -40 L 27 -103.5 L 27 -167 L 5 -167 L 5 -178.5 L 5 -190 L 29 -190 L 38 -233 L 59 -233 L 59 -211.5 L 59 -190 L 94 -190 L 94 -178.5 L 94 -167 L 59 -167 L 59 -107 L 59 -47 Z " fill="#333333"/>
</g>
<g id="Layer-1" data-name="Div">
<path transform="matrix(.45,0,0,.45,361.125,126)" d="M 0 8 C 0 3.6 3.6 0 8 0 L 152 0 C 156.4 0 160 3.6 160 8 L 160 112 C 160 116.4 156.4 120 152 120 L 8 120 C 3.6 120 0 116.4 0 112 Z " fill="#ffffff"/>
<path transform="matrix(.45,0,0,.45,361.125,126)" stroke-width="1" stroke-linecap="butt" stroke-miterlimit="4" stroke-linejoin="miter" fill="none" stroke="#333333" d="M 0 8 C 0 3.6 3.6 0 8 0 L 152 0 C 156.4 0 160 3.6 160 8 L 160 112 C 160 116.4 156.4 120 152 120 L 8 120 C 3.6 120 0 116.4 0 112 Z "/>
<path transform="matrix(.022499999,0,0,.022499999,384.9975,149.76001)" d="M 212 -179 C 202 -207 177 -224 139 -224 C 80 -224 52 -184 52 -125 C 52 -65 81 -24 141 -24 C 184 -24 203 -48 219 -76 L 246 -62 C 228 -24 195 4 139 4 C 59 4 22 -46 18 -125 C 12 -229 117 -278 205 -236 C 224 -227 236 -210 244 -190 Z " fill="#333333"/>
<path transform="matrix(.022499999,0,0,.022499999,390.825,149.76001)" d="M 114 -163 C 36 -179 61 -72 57 0 L 25 0 L 24 -190 L 54 -190 C 55 -178 53 -161 56 -151 C 62 -178 79 -200 114 -192 L 114 -177.5 L 114 -163 Z " fill="#333333"/>
<path transform="matrix(.022499999,0,0,.022499999,393.5025,149.76001)" d="M 100 -194 C 163 -194 186 -152 184 -88 L 49 -88 C 49 -48 63 -21 102 -20 C 128 -19 145 -32 151 -49 L 179 -41 C 168 -13 142 4 102 4 C 44 4 14 -33 15 -96 C 16 -157 41 -194 100 -194 Z M 152 -113 C 158 -173 76 -190 55 -141 C 52 -134 49 -124 49 -113 L 152 -113 Z " fill="#333333"/>
<path transform="matrix(.022499999,0,0,.022499999,398.0025,149.76001)" d="M 141 -36 C 126 -15 110 5 73 4 C 37 3 15 -17 15 -53 C 14 -117 78 -116 140 -116 C 143 -151 131 -170 99 -170 C 75 -169 58 -163 57 -139 L 24 -142 C 29 -179 57 -194 100 -194 C 145 -194 172 -174 172 -130 L 172 -89 L 172 -48 C 171 -28 179 -16 200 -21 L 200 -11 L 200 -1 C 169 8 139 -3 141 -36 Z M 48 -53 C 48 -33 60 -20 80 -20 C 121 -23 143 -49 140 -94 C 97 -92 48 -99 48 -53 Z " fill="#333333"/>
<path transform="matrix(.022499999,0,0,.022499999,402.5025,149.76001)" d="M 59 -47 C 57 -23 77 -18 97 -25 L 97 -13 L 97 -1 C 64 9 27 4 27 -40 L 27 -103.5 L 27 -167 L 5 -167 L 5 -178.5 L 5 -190 L 29 -190 L 38 -233 L 59 -233 L 59 -211.5 L 59 -190 L 94 -190 L 94 -178.5 L 94 -167 L 59 -167 L 59 -107 L 59 -47 Z " fill="#333333"/>
<path transform="matrix(.022499999,0,0,.022499999,404.7525,149.76001)" d="M 100 -194 C 163 -194 186 -152 184 -88 L 49 -88 C 49 -48 63 -21 102 -20 C 128 -19 145 -32 151 -49 L 179 -41 C 168 -13 142 4 102 4 C 44 4 14 -33 15 -96 C 16 -157 41 -194 100 -194 Z M 152 -113 C 158 -173 76 -190 55 -141 C 52 -134 49 -124 49 -113 L 152 -113 Z " fill="#333333"/>
<path transform="matrix(.022499999,0,0,.022499999,409.2525,149.76001)" d="" fill="#333333"/>
<path transform="matrix(.022499999,0,0,.022499999,377.58149,159.48001)" d="M 115 -194 C 170 -193 185 -153 185 -96 C 185 -39 169 2 115 4 C 84 4 66 -9 55 -30 L 56 75 L 24 75 L 23 -190 L 54 -190 L 56 -160 C 66 -181 84 -194 115 -194 Z M 107 -20 C 147 -20 152 -54 152 -95 C 152 -136 146 -168 107 -169 C 65 -169 56 -137 56 -93 C 56 -50 66 -20 107 -20 Z " fill="#333333"/>
<path transform="matrix(.022499999,0,0,.022499999,382.08149,159.48001)" d="M 114 -163 C 36 -179 61 -72 57 0 L 25 0 L 24 -190 L 54 -190 C 55 -178 53 -161 56 -151 C 62 -178 79 -200 114 -192 L 114 -177.5 L 114 -163 Z " fill="#333333"/>
<path transform="matrix(.022499999,0,0,.022499999,384.75898,159.48001)" d="M 100 -194 C 163 -194 186 -152 184 -88 L 49 -88 C 49 -48 63 -21 102 -20 C 128 -19 145 -32 151 -49 L 179 -41 C 168 -13 142 4 102 4 C 44 4 14 -33 15 -96 C 16 -157 41 -194 100 -194 Z M 152 -113 C 158 -173 76 -190 55 -141 C 52 -134 49 -124 49 -113 L 152 -113 Z " fill="#333333"/>
<path transform="matrix(.022499999,0,0,.022499999,389.25898,159.48001)" d="M 85 -194 C 116 -194 133 -181 145 -161 L 144 -261 L 176 -261 L 177 0 L 147 0 C 145 -10 147 -23 144 -31 C 134 -8 116 4 85 4 C 32 4 16 -35 15 -94 C 15 -160 38 -194 85 -194 Z M 94 -170 C 54 -170 48 -136 48 -95 C 48 -55 54 -21 93 -21 C 135 -21 144 -53 144 -97 C 144 -139 135 -171 94 -170 Z " fill="#333333"/>
<path transform="matrix(.022499999,0,0,.022499999,393.75898,159.48001)" d="M 24 -231 L 24 -246 L 24 -261 L 56 -261 L 56 -246 L 56 -231 L 24 -231 Z M 24 0 L 24 -95 L 24 -190 L 56 -190 L 56 -95 L 56 0 L 24 0 Z " fill="#333333"/>
<path transform="matrix(.022499999,0,0,.022499999,395.53648,159.48001)" d="M 96 -169 C 56 -169 48 -136 48 -96 C 48 -56 57 -21 96 -21 C 120 -21 137 -35 139 -59 L 171 -57 C 165 -20 140 4 97 4 C 38 4 21 -37 15 -95 C 5 -188 116 -226 162 -159 C 166 -152 167 -145 169 -137 L 137 -134 C 133 -155 121 -169 96 -169 Z " fill="#333333"/>
<path transform="matrix(.022499999,0,0,.022499999,399.5865,159.48001)" d="M 59 -47 C 57 -23 77 -18 97 -25 L 97 -13 L 97 -1 C 64 9 27 4 27 -40 L 27 -103.5 L 27 -167 L 5 -167 L 5 -178.5 L 5 -190 L 29 -190 L 38 -233 L 59 -233 L 59 -211.5 L 59 -190 L 94 -190 L 94 -178.5 L 94 -167 L 59 -167 L 59 -107 L 59 -47 Z " fill="#333333"/>
<path transform="matrix(.022499999,0,0,.022499999,401.8365,159.48001)" d="M 24 -231 L 24 -246 L 24 -261 L 56 -261 L 56 -246 L 56 -231 L 24 -231 Z M 24 0 L 24 -95 L 24 -190 L 56 -190 L 56 -95 L 56 0 L 24 0 Z " fill="#333333"/>
<path transform="matrix(.022499999,0,0,.022499999,403.61399,159.48001)" d="M 100 -194 C 162 -195 185 -157 185 -95 C 186 -32 158 4 99 4 C 40 4 16 -35 15 -95 C 15 -161 43 -194 100 -194 Z M 99 -20 C 143 -19 152 -51 152 -95 C 152 -138 144 -170 101 -170 C 58 -170 48 -138 48 -95 C 48 -52 58 -21 99 -20 Z " fill="#333333"/>
<path transform="matrix(.022499999,0,0,.022499999,408.11399,159.48001)" d="M 117 -194 C 206 -198 170 -78 177 0 L 145 0 L 145 -60.5 L 145 -121 C 145 -152 137 -170 106 -169 C 34 -167 62 -67 57 0 L 25 0 L 24 -190 L 54 -190 C 55 -180 53 -166 56 -158 C 67 -180 85 -193 117 -194 Z " fill="#333333"/>
<path transform="matrix(.022499999,0,0,.022499999,412.61399,159.48001)" d="M 135 -143 C 132 -177 49 -181 48 -143 C 63 -90 163 -131 167 -53 C 171 25 17 21 10 -45 L 38 -50 C 42 -14 135 -5 136 -50 C 126 -106 23 -65 18 -140 C 14 -197 100 -203 140 -182 C 152 -175 161 -163 164 -147 Z " fill="#333333"/>
</g>
<g id="Layer-1" data-name="Div">
<path transform="matrix(.45,0,0,.45,0,0)" stroke-width="1" stroke-linecap="butt" stroke-miterlimit="4" stroke-linejoin="miter" fill="none" stroke="#333333" d="M 1116 237.7 L 1051 237.7 C 1045 237.7 1039 243.1 1039 249.7 L 1039 328 C 1039 334.6 1034 340 1027 340 L 979.4 340 "/>
<path transform="matrix(.45,0,0,.45,0,0)" stroke-width="1" stroke-linecap="butt" stroke-miterlimit="4" stroke-linejoin="miter" fill="none" stroke="#333333" d="M 1116 237.7 L 1119 237.7 "/>
<path transform="matrix(.45,0,0,.45,0,0)" d="M 964.6 340 L 978.9 335.4 L 978.9 344.6 Z " fill="#333333"/>
<path transform="matrix(.45,0,0,.45,0,0)" stroke-width="1" stroke-linecap="butt" stroke-miterlimit="4" stroke-linejoin="miter" fill="none" stroke="#333333" d="M 964.6 340 L 978.9 335.4 L 978.9 344.6 Z "/>
</g>
<g id="Layer-1" data-name="Div">
<path transform="matrix(.45,0,0,.45,347.625,207)" d="M 0 8 C 0 3.6 3.6 0 8 0 L 212 0 C 216.4 0 220 3.6 220 8 L 220 112 C 220 116.4 216.4 120 212 120 L 8 120 C 3.6 120 0 116.4 0 112 Z " fill="#c7e8ac"/>
<path transform="matrix(.45,0,0,.45,347.625,207)" stroke-width="1" stroke-linecap="butt" stroke-miterlimit="4" stroke-linejoin="miter" fill="none" stroke="#333333" d="M 0 8 C 0 3.6 3.6 0 8 0 L 212 0 C 216.4 0 220 3.6 220 8 L 220 112 C 220 116.4 216.4 120 212 120 L 8 120 C 3.6 120 0 116.4 0 112 Z "/>
<path transform="matrix(.45,0,0,.45,347.625,207)" stroke-width="1" stroke-linecap="butt" stroke-miterlimit="4" stroke-linejoin="miter" fill="none" stroke="#333333" d="M 22 0 L 22 120 M 198 0 L 198 120 "/>
<path transform="matrix(.022499999,0,0,.022499999,389.0565,230.76001)" d="M 101 -234 C 70 -243 59 -224 63 -190 L 101 -190 L 101 -178.5 L 101 -167 L 63 -167 L 63 -83.5 L 63 0 L 32 0 L 32 -83.5 L 32 -167 L 5 -167 L 5 -178.5 L 5 -190 L 32 -190 C 25 -242 49 -272 101 -258 L 101 -246 L 101 -234 Z " fill="#333333"/>
<path transform="matrix(.022499999,0,0,.022499999,391.3065,230.76001)" d="M 24 -231 L 24 -246 L 24 -261 L 56 -261 L 56 -246 L 56 -231 L 24 -231 Z M 24 0 L 24 -95 L 24 -190 L 56 -190 L 56 -95 L 56 0 L 24 0 Z " fill="#333333"/>
<path transform="matrix(.022499999,0,0,.022499999,393.08399,230.76001)" d="M 59 -47 C 57 -23 77 -18 97 -25 L 97 -13 L 97 -1 C 64 9 27 4 27 -40 L 27 -103.5 L 27 -167 L 5 -167 L 5 -178.5 L 5 -190 L 29 -190 L 38 -233 L 59 -233 L 59 -211.5 L 59 -190 L 94 -190 L 94 -178.5 L 94 -167 L 59 -167 L 59 -107 L 59 -47 Z " fill="#333333"/>
<path transform="matrix(.022499999,0,0,.022499999,395.33399,230.76001)" d="M 87 75 C 49 33 22 -17 22 -94 C 22 -170 50 -220 87 -261 L 118 -261 C 80 -220 54 -169 54 -93 C 54 -17 80 34 118 75 L 87 75 Z " fill="#333333"/>
<path transform="matrix(.022499999,0,0,.022499999,398.01148,230.76001)" d="M 33 -261 C 71 -220 98 -169 98 -93 C 98 -17 71 34 33 75 L 2 75 C 39 34 66 -17 66 -93 C 66 -169 39 -220 2 -261 L 33 -261 Z " fill="#333333"/>
<path transform="matrix(.022499999,0,0,.022499999,400.689,230.76001)" d="" fill="#333333"/>
<path transform="matrix(.022499999,0,0,.022499999,402.939,230.76001)" d="M 0 4 L 72 -261 L 100 -261 L 28 4 L 0 4 Z " fill="#333333"/>
<path transform="matrix(.022499999,0,0,.022499999,405.189,230.76001)" d="" fill="#333333"/>
<path transform="matrix(.022499999,0,0,.022499999,368.1675,240.48001)" d="M 101 -234 C 70 -243 59 -224 63 -190 L 101 -190 L 101 -178.5 L 101 -167 L 63 -167 L 63 -83.5 L 63 0 L 32 0 L 32 -83.5 L 32 -167 L 5 -167 L 5 -178.5 L 5 -190 L 32 -190 C 25 -242 49 -272 101 -258 L 101 -246 L 101 -234 Z " fill="#333333"/>
<path transform="matrix(.022499999,0,0,.022499999,370.4175,240.48001)" d="M 24 -231 L 24 -246 L 24 -261 L 56 -261 L 56 -246 L 56 -231 L 24 -231 Z M 24 0 L 24 -95 L 24 -190 L 56 -190 L 56 -95 L 56 0 L 24 0 Z " fill="#333333"/>
<path transform="matrix(.022499999,0,0,.022499999,372.195,240.48001)" d="M 59 -47 C 57 -23 77 -18 97 -25 L 97 -13 L 97 -1 C 64 9 27 4 27 -40 L 27 -103.5 L 27 -167 L 5 -167 L 5 -178.5 L 5 -190 L 29 -190 L 38 -233 L 59 -233 L 59 -211.5 L 59 -190 L 94 -190 L 94 -178.5 L 94 -167 L 59 -167 L 59 -107 L 59 -47 Z " fill="#333333"/>
<path transform="matrix(.022499999,0,0,.022499999,374.445,240.48001)" d="M -5 72 L -5 60.5 L -5 49 L 204 49 L 204 60.5 L 204 72 L -5 72 Z " fill="#333333"/>
<path transform="matrix(.022499999,0,0,.022499999,378.945,240.48001)" d="M 115 -194 C 170 -193 185 -153 185 -96 C 185 -39 169 2 115 4 C 84 4 66 -9 55 -30 L 56 75 L 24 75 L 23 -190 L 54 -190 L 56 -160 C 66 -181 84 -194 115 -194 Z M 107 -20 C 147 -20 152 -54 152 -95 C 152 -136 146 -168 107 -169 C 65 -169 56 -137 56 -93 C 56 -50 66 -20 107 -20 Z " fill="#333333"/>
<path transform="matrix(.022499999,0,0,.022499999,383.445,240.48001)" d="M 100 -194 C 163 -194 186 -152 184 -88 L 49 -88 C 49 -48 63 -21 102 -20 C 128 -19 145 -32 151 -49 L 179 -41 C 168 -13 142 4 102 4 C 44 4 14 -33 15 -96 C 16 -157 41 -194 100 -194 Z M 152 -113 C 158 -173 76 -190 55 -141 C 52 -134 49 -124 49 -113 L 152 -113 Z " fill="#333333"/>
<path transform="matrix(.022499999,0,0,.022499999,387.945,240.48001)" d="M 117 -194 C 206 -198 170 -78 177 0 L 145 0 L 145 -60.5 L 145 -121 C 145 -152 137 -170 106 -169 C 34 -167 62 -67 57 0 L 25 0 L 24 -190 L 54 -190 C 55 -180 53 -166 56 -158 C 67 -180 85 -193 117 -194 Z " fill="#333333"/>
<path transform="matrix(.022499999,0,0,.022499999,392.445,240.48001)" d="M 84 4 C -5 8 30 -112 23 -190 L 55 -190 L 55 -130 L 55 -70 C 55 -39 62 -20 94 -21 C 166 -23 139 -122 144 -190 L 175 -190 L 176 0 L 146 0 C 145 -10 147 -25 144 -33 C 133 -11 116 3 84 4 Z " fill="#333333"/>
<path transform="matrix(.022499999,0,0,.022499999,396.945,240.48001)" d="M 24 0 L 24 -130.5 L 24 -261 L 56 -261 L 56 -130.5 L 56 0 L 24 0 Z " fill="#333333"/>
<path transform="matrix(.022499999,0,0,.022499999,398.7225,240.48001)" d="M 59 -47 C 57 -23 77 -18 97 -25 L 97 -13 L 97 -1 C 64 9 27 4 27 -40 L 27 -103.5 L 27 -167 L 5 -167 L 5 -178.5 L 5 -190 L 29 -190 L 38 -233 L 59 -233 L 59 -211.5 L 59 -190 L 94 -190 L 94 -178.5 L 94 -167 L 59 -167 L 59 -107 L 59 -47 Z " fill="#333333"/>
<path transform="matrix(.022499999,0,0,.022499999,400.9725,240.48001)" d="M 24 -231 L 24 -246 L 24 -261 L 56 -261 L 56 -246 L 56 -231 L 24 -231 Z M 24 0 L 24 -95 L 24 -190 L 56 -190 L 56 -95 L 56 0 L 24 0 Z " fill="#333333"/>
<path transform="matrix(.022499999,0,0,.022499999,402.75,240.48001)" d="M 210 -169 C 143 -166 172 -64 166 0 L 135 0 L 135 -60.5 L 135 -121 C 135 -150 130 -171 100 -169 C 34 -165 62 -65 56 0 L 25 0 L 24 -190 L 54 -190 C 55 -180 53 -166 56 -158 C 66 -202 155 -208 163 -158 C 174 -179 190 -193 221 -194 C 306 -196 268 -75 276 0 L 245 0 L 245 -60.5 L 245 -121 C 245 -150 240 -170 210 -169 Z " fill="#333333"/>
<path transform="matrix(.022499999,0,0,.022499999,409.4775,240.48001)" d="M 141 -36 C 126 -15 110 5 73 4 C 37 3 15 -17 15 -53 C 14 -117 78 -116 140 -116 C 143 -151 131 -170 99 -170 C 75 -169 58 -163 57 -139 L 24 -142 C 29 -179 57 -194 100 -194 C 145 -194 172 -174 172 -130 L 172 -89 L 172 -48 C 171 -28 179 -16 200 -21 L 200 -11 L 200 -1 C 169 8 139 -3 141 -36 Z M 48 -53 C 48 -33 60 -20 80 -20 C 121 -23 143 -49 140 -94 C 97 -92 48 -99 48 -53 Z " fill="#333333"/>
<path transform="matrix(.022499999,0,0,.022499999,413.9775,240.48001)" d="M 59 -47 C 57 -23 77 -18 97 -25 L 97 -13 L 97 -1 C 64 9 27 4 27 -40 L 27 -103.5 L 27 -167 L 5 -167 L 5 -178.5 L 5 -190 L 29 -190 L 38 -233 L 59 -233 L 59 -211.5 L 59 -190 L 94 -190 L 94 -178.5 L 94 -167 L 59 -167 L 59 -107 L 59 -47 Z " fill="#333333"/>
<path transform="matrix(.022499999,0,0,.022499999,416.2275,240.48001)" d="M 100 -194 C 163 -194 186 -152 184 -88 L 49 -88 C 49 -48 63 -21 102 -20 C 128 -19 145 -32 151 -49 L 179 -41 C 168 -13 142 4 102 4 C 44 4 14 -33 15 -96 C 16 -157 41 -194 100 -194 Z M 152 -113 C 158 -173 76 -190 55 -141 C 52 -134 49 -124 49 -113 L 152 -113 Z " fill="#333333"/>
<path transform="matrix(.022499999,0,0,.022499999,420.7275,240.48001)" d="M 87 75 C 49 33 22 -17 22 -94 C 22 -170 50 -220 87 -261 L 118 -261 C 80 -220 54 -169 54 -93 C 54 -17 80 34 118 75 L 87 75 Z " fill="#333333"/>
<path transform="matrix(.022499999,0,0,.022499999,423.405,240.48001)" d="M 33 -261 C 71 -220 98 -169 98 -93 C 98 -17 71 34 33 75 L 2 75 C 39 34 66 -17 66 -93 C 66 -169 39 -220 2 -261 L 33 -261 Z " fill="#333333"/>
</g>
<g id="Layer-1" data-name="Div">
<path transform="matrix(.45,0,0,.45,0,0)" stroke-width="1" stroke-linecap="butt" stroke-miterlimit="4" stroke-linejoin="miter" fill="none" stroke="#333333" d="M 882.4 401 L 882.4 430 L 882.5 430 L 882.5 443.1 "/>
<path transform="matrix(.45,0,0,.45,0,0)" d="M 882.9 401 L 881.9 401 L 881.9 400.5 L 882.9 400.5 Z " fill="#333333"/>
<path transform="matrix(.45,0,0,.45,0,0)" d="M 882.5 457.9 L 877.9 443.6 L 887.1 443.6 Z " fill="#333333"/>
<path transform="matrix(.45,0,0,.45,0,0)" stroke-width="1" stroke-linecap="butt" stroke-miterlimit="4" stroke-linejoin="miter" fill="none" stroke="#333333" d="M 882.5 457.9 L 877.9 443.6 L 887.1 443.6 Z "/>
</g>
<g id="Layer-1" data-name="Div">
<path transform="matrix(.45,0,0,.45,0,0)" d="M 1180 508 L 1180 511.2 L 1178 514.2 L 1176 516.8 L 1174 518.8 L 1171 520.1 L 1168 520.5 L 1009 520.5 L 1009 519.5 L 1168 519.5 L 1171 519.1 L 1173 518 L 1176 516.1 L 1178 513.7 L 1179 511 L 1179 508 L 1179 471.6 L 1180 471.6 Z M 1180 450 L 1179 450 L 1179 298.7 L 1180 298.7 Z " fill="#333333"/>
<path transform="matrix(.45,0,0,.45,0,0)" d="M 1180 298.2 L 1180 298.2 L 1180 298.7 L 1179 298.7 L 1179 298.2 Z " fill="#333333"/>
<path transform="matrix(.45,0,0,.45,0,0)" d="M 1008 524.6 L 994.6 520 L 1008 515.4 Z " fill="#333333"/>
<path transform="matrix(.45,0,0,.45,0,0)" d="M 1009 525.3 L 993 520 L 1009 514.7 Z M 996.2 520 L 1008 523.9 L 1008 516.1 Z " fill="#333333"/>
<path transform="matrix(.022499999,0,0,.022499999,517.50228,208.935)" d="M 127 -220 L 127 -110 L 127 0 L 93 0 L 93 -110 L 93 -220 L 8 -220 L 8 -234 L 8 -248 L 212 -248 L 212 -234 L 212 -220 L 127 -220 Z " fill="#333333"/>
<path transform="matrix(.022499999,0,0,.022499999,521.5298,208.935)" d="M 141 -36 C 126 -15 110 5 73 4 C 37 3 15 -17 15 -53 C 14 -117 78 -116 140 -116 C 143 -151 131 -170 99 -170 C 75 -169 58 -163 57 -139 L 24 -142 C 29 -179 57 -194 100 -194 C 145 -194 172 -174 172 -130 L 172 -89 L 172 -48 C 171 -28 179 -16 200 -21 L 200 -11 L 200 -1 C 169 8 139 -3 141 -36 Z M 48 -53 C 48 -33 60 -20 80 -20 C 121 -23 143 -49 140 -94 C 97 -92 48 -99 48 -53 Z " fill="#333333"/>
<path transform="matrix(.022499999,0,0,.022499999,526.0298,208.935)" d="M 114 -163 C 36 -179 61 -72 57 0 L 25 0 L 24 -190 L 54 -190 C 55 -178 53 -161 56 -151 C 62 -178 79 -200 114 -192 L 114 -177.5 L 114 -163 Z " fill="#333333"/>
<path transform="matrix(.022499999,0,0,.022499999,528.7073,208.935)" d="M 177 -190 C 167 -65 218 103 67 71 C 44 65 29 51 23 28 L 55 23 C 70 70 155 55 144 -5 L 144 -20 L 144 -35 C 133 -14 115 1 83 1 C 29 1 15 -40 15 -95 C 15 -151 31 -192 86 -193 C 115 -194 134 -177 145 -158 C 146 -168 145 -181 147 -190 L 177 -190 Z M 94 -22 C 130 -22 144 -54 144 -95 C 144 -137 130 -170 94 -170 C 55 -170 48 -136 48 -95 C 48 -54 54 -22 94 -22 Z " fill="#333333"/>
<path transform="matrix(.022499999,0,0,.022499999,533.2073,208.935)" d="M 100 -194 C 163 -194 186 -152 184 -88 L 49 -88 C 49 -48 63 -21 102 -20 C 128 -19 145 -32 151 -49 L 179 -41 C 168 -13 142 4 102 4 C 44 4 14 -33 15 -96 C 16 -157 41 -194 100 -194 Z M 152 -113 C 158 -173 76 -190 55 -141 C 52 -134 49 -124 49 -113 L 152 -113 Z " fill="#333333"/>
<path transform="matrix(.022499999,0,0,.022499999,537.7073,208.935)" d="M 59 -47 C 57 -23 77 -18 97 -25 L 97 -13 L 97 -1 C 64 9 27 4 27 -40 L 27 -103.5 L 27 -167 L 5 -167 L 5 -178.5 L 5 -190 L 29 -190 L 38 -233 L 59 -233 L 59 -211.5 L 59 -190 L 94 -190 L 94 -178.5 L 94 -167 L 59 -167 L 59 -107 L 59 -47 Z " fill="#333333"/>
<path transform="matrix(.022499999,0,0,.022499999,539.9573,208.935)" d="M 135 -143 C 132 -177 49 -181 48 -143 C 63 -90 163 -131 167 -53 C 171 25 17 21 10 -45 L 38 -50 C 42 -14 135 -5 136 -50 C 126 -106 23 -65 18 -140 C 14 -197 100 -203 140 -182 C 152 -175 161 -163 164 -147 Z " fill="#333333"/>
</g>
<g id="Layer-1" data-name="Div">
<path transform="matrix(.45,0,0,.45,361.125,288)" d="M 29.9 7.7 C 31.1 3.5 35.6 0 40 0 L 152 0 C 156.4 0 159.1 3.5 157.9 7.7 L 130.1 112.3 C 128.9 116.5 124.4 120 120 120 L 8 120 C 3.6 120 .9 116.5 2.1 112.3 Z " fill="#ffeca9"/>
<path transform="matrix(.45,0,0,.45,361.125,288)" stroke-width="1" stroke-linecap="butt" stroke-miterlimit="4" stroke-linejoin="miter" fill="none" stroke="#333333" d="M 29.9 7.7 C 31.1 3.5 35.6 0 40 0 L 152 0 C 156.4 0 159.1 3.5 157.9 7.7 L 130.1 112.3 C 128.9 116.5 124.4 120 120 120 L 8 120 C 3.6 120 .9 116.5 2.1 112.3 Z "/>
<path transform="matrix(.022499999,0,0,.022499999,375.3315,316.62)" d="M 30 0 L 30 -124 L 30 -248 L 63 -248 L 63 -137.5 L 63 -27 L 188 -27 L 188 -13.5 L 188 0 L 30 0 Z " fill="#333333"/>
<path transform="matrix(.022499999,0,0,.022499999,379.8315,316.62)" d="M 30 -248 C 148 -255 246 -240 243 -126 C 240 -48 200 0 122 0 L 30 0 L 30 -124 L 30 -248 Z M 63 -27 C 152 -19 209 -43 209 -126 C 209 -209 149 -227 63 -221 L 63 -124 L 63 -27 Z " fill="#333333"/>
<path transform="matrix(.022499999,0,0,.022499999,385.659,316.62)" d="M 205 0 L 177 -72 L 64 -72 L 36 0 L 1 0 L 102 -248 L 140 -248 L 239 0 L 205 0 Z M 167 -99 L 120 -222 C 108 -177 89 -140 74 -99 L 167 -99 Z " fill="#333333"/>
<path transform="matrix(.022499999,0,0,.022499999,390.609,316.62)" d="" fill="#333333"/>
<path transform="matrix(.022499999,0,0,.022499999,392.859,316.62)" d="M 210 -169 C 143 -166 172 -64 166 0 L 135 0 L 135 -60.5 L 135 -121 C 135 -150 130 -171 100 -169 C 34 -165 62 -65 56 0 L 25 0 L 24 -190 L 54 -190 C 55 -180 53 -166 56 -158 C 66 -202 155 -208 163 -158 C 174 -179 190 -193 221 -194 C 306 -196 268 -75 276 0 L 245 0 L 245 -60.5 L 245 -121 C 245 -150 240 -170 210 -169 Z " fill="#333333"/>
<path transform="matrix(.022499999,0,0,.022499999,399.58653,316.62)" d="M 100 -194 C 162 -195 185 -157 185 -95 C 186 -32 158 4 99 4 C 40 4 16 -35 15 -95 C 15 -161 43 -194 100 -194 Z M 99 -20 C 143 -19 152 -51 152 -95 C 152 -138 144 -170 101 -170 C 58 -170 48 -138 48 -95 C 48 -52 58 -21 99 -20 Z " fill="#333333"/>
<path transform="matrix(.022499999,0,0,.022499999,404.08653,316.62)" d="M 85 -194 C 116 -194 133 -181 145 -161 L 144 -261 L 176 -261 L 177 0 L 147 0 C 145 -10 147 -23 144 -31 C 134 -8 116 4 85 4 C 32 4 16 -35 15 -94 C 15 -160 38 -194 85 -194 Z M 94 -170 C 54 -170 48 -136 48 -95 C 48 -55 54 -21 93 -21 C 135 -21 144 -53 144 -97 C 144 -139 135 -171 94 -170 Z " fill="#333333"/>
<path transform="matrix(.022499999,0,0,.022499999,408.58653,316.62)" d="M 100 -194 C 163 -194 186 -152 184 -88 L 49 -88 C 49 -48 63 -21 102 -20 C 128 -19 145 -32 151 -49 L 179 -41 C 168 -13 142 4 102 4 C 44 4 14 -33 15 -96 C 16 -157 41 -194 100 -194 Z M 152 -113 C 158 -173 76 -190 55 -141 C 52 -134 49 -124 49 -113 L 152 -113 Z " fill="#333333"/>
<path transform="matrix(.022499999,0,0,.022499999,413.08653,316.62)" d="M 24 0 L 24 -130.5 L 24 -261 L 56 -261 L 56 -130.5 L 56 0 L 24 0 Z " fill="#333333"/>
<path transform="matrix(.022499999,0,0,.022499999,414.864,316.62)" d="M 135 -143 C 132 -177 49 -181 48 -143 C 63 -90 163 -131 167 -53 C 171 25 17 21 10 -45 L 38 -50 C 42 -14 135 -5 136 -50 C 126 -106 23 -65 18 -140 C 14 -197 100 -203 140 -182 C 152 -175 161 -163 164 -147 Z " fill="#333333"/>
</g>
<g id="Layer-1" data-name="Div">
<path transform="matrix(.45,0,0,.45,0,0)" stroke-width="1" stroke-linecap="butt" stroke-miterlimit="4" stroke-linejoin="miter" fill="none" stroke="#333333" d="M 882.5 581 L 882.5 623.1 "/>
<path transform="matrix(.45,0,0,.45,0,0)" d="M 883 581 L 882 581 L 882 580.5 L 883 580.5 Z " fill="#333333"/>
<path transform="matrix(.45,0,0,.45,0,0)" d="M 882.5 637.9 L 877.9 623.6 L 887.1 623.6 Z " fill="#333333"/>
<path transform="matrix(.45,0,0,.45,0,0)" stroke-width="1" stroke-linecap="butt" stroke-miterlimit="4" stroke-linejoin="miter" fill="none" stroke="#333333" d="M 882.5 637.9 L 877.9 623.6 L 887.1 623.6 Z "/>
</g>
<g id="Layer-1" data-name="Div">
<path transform="matrix(.45,0,0,.45,225,115.965007)" d="M 29.9 7.7 C 31.1 3.5 35.6 0 40 0 L 172 0 C 176.4 0 179.1 3.5 177.9 7.7 L 150.1 112.3 C 148.9 116.5 144.4 120 140 120 L 8 120 C 3.6 120 .9 116.5 2.1 112.3 Z " fill="#ffeca9"/>
<path transform="matrix(.45,0,0,.45,225,115.965007)" stroke-width="1" stroke-linecap="butt" stroke-miterlimit="4" stroke-linejoin="miter" fill="none" stroke="#333333" d="M 29.9 7.7 C 31.1 3.5 35.6 0 40 0 L 172 0 C 176.4 0 179.1 3.5 177.9 7.7 L 150.1 112.3 C 148.9 116.5 144.4 120 140 120 L 8 120 C 3.6 120 .9 116.5 2.1 112.3 Z "/>
<path transform="matrix(.022499999,0,0,.022499999,238.554,139.725)" d="M 190 0 L 58 -211 L 59 0 L 30 0 L 30 -124 L 30 -248 L 69 -248 L 202 -35 L 200 -248 L 231 -248 L 231 -124 L 231 0 L 190 0 Z " fill="#333333"/>
<path transform="matrix(.022499999,0,0,.022499999,244.3815,139.725)" d="M 190 0 L 58 -211 L 59 0 L 30 0 L 30 -124 L 30 -248 L 69 -248 L 202 -35 L 200 -248 L 231 -248 L 231 -124 L 231 0 L 190 0 Z " fill="#333333"/>
<path transform="matrix(.022499999,0,0,.022499999,250.209,139.725)" d="" fill="#333333"/>
<path transform="matrix(.022499999,0,0,.022499999,252.459,139.725)" d="M 16 -82 L 16 -96 L 16 -110 L 104 -110 L 104 -96 L 104 -82 L 16 -82 Z " fill="#333333"/>
<path transform="matrix(.022499999,0,0,.022499999,255.1365,139.725)" d="" fill="#333333"/>
<path transform="matrix(.022499999,0,0,.022499999,257.3865,139.725)" d="M 100 -194 C 163 -194 186 -152 184 -88 L 49 -88 C 49 -48 63 -21 102 -20 C 128 -19 145 -32 151 -49 L 179 -41 C 168 -13 142 4 102 4 C 44 4 14 -33 15 -96 C 16 -157 41 -194 100 -194 Z M 152 -113 C 158 -173 76 -190 55 -141 C 52 -134 49 -124 49 -113 L 152 -113 Z " fill="#333333"/>
<path transform="matrix(.022499999,0,0,.022499999,261.8865,139.725)" d="M 117 -194 C 206 -198 170 -78 177 0 L 145 0 L 145 -60.5 L 145 -121 C 145 -152 137 -170 106 -169 C 34 -167 62 -67 57 0 L 25 0 L 24 -190 L 54 -190 C 55 -180 53 -166 56 -158 C 67 -180 85 -193 117 -194 Z " fill="#333333"/>
<path transform="matrix(.022499999,0,0,.022499999,266.3865,139.725)" d="M 135 -143 C 132 -177 49 -181 48 -143 C 63 -90 163 -131 167 -53 C 171 25 17 21 10 -45 L 38 -50 C 42 -14 135 -5 136 -50 C 126 -106 23 -65 18 -140 C 14 -197 100 -203 140 -182 C 152 -175 161 -163 164 -147 Z " fill="#333333"/>
<path transform="matrix(.022499999,0,0,.022499999,270.4365,139.725)" d="M 100 -194 C 163 -194 186 -152 184 -88 L 49 -88 C 49 -48 63 -21 102 -20 C 128 -19 145 -32 151 -49 L 179 -41 C 168 -13 142 4 102 4 C 44 4 14 -33 15 -96 C 16 -157 41 -194 100 -194 Z M 152 -113 C 158 -173 76 -190 55 -141 C 52 -134 49 -124 49 -113 L 152 -113 Z " fill="#333333"/>
<path transform="matrix(.022499999,0,0,.022499999,274.9365,139.725)" d="M 210 -169 C 143 -166 172 -64 166 0 L 135 0 L 135 -60.5 L 135 -121 C 135 -150 130 -171 100 -169 C 34 -165 62 -65 56 0 L 25 0 L 24 -190 L 54 -190 C 55 -180 53 -166 56 -158 C 66 -202 155 -208 163 -158 C 174 -179 190 -193 221 -194 C 306 -196 268 -75 276 0 L 245 0 L 245 -60.5 L 245 -121 C 245 -150 240 -170 210 -169 Z " fill="#333333"/>
<path transform="matrix(.022499999,0,0,.022499999,281.664,139.725)" d="M 115 -194 C 168 -194 184 -155 185 -96 C 185 -30 162 4 115 4 C 84 3 66 -7 56 -30 L 54 0 L 23 0 L 24 -261 L 56 -261 L 56 -210.5 L 56 -160 C 66 -183 84 -194 115 -194 Z M 107 -20 C 147 -20 152 -54 152 -95 C 152 -135 147 -170 107 -169 C 65 -169 56 -137 56 -93 C 56 -50 66 -20 107 -20 Z " fill="#333333"/>
<path transform="matrix(.022499999,0,0,.022499999,286.164,139.725)" d="M 24 0 L 24 -130.5 L 24 -261 L 56 -261 L 56 -130.5 L 56 0 L 24 0 Z " fill="#333333"/>
<path transform="matrix(.022499999,0,0,.022499999,287.9415,139.725)" d="M 100 -194 C 163 -194 186 -152 184 -88 L 49 -88 C 49 -48 63 -21 102 -20 C 128 -19 145 -32 151 -49 L 179 -41 C 168 -13 142 4 102 4 C 44 4 14 -33 15 -96 C 16 -157 41 -194 100 -194 Z M 152 -113 C 158 -173 76 -190 55 -141 C 52 -134 49 -124 49 -113 L 152 -113 Z " fill="#333333"/>
<path transform="matrix(.022499999,0,0,.022499999,292.4415,139.725)" d="" fill="#333333"/>
<path transform="matrix(.022499999,0,0,.022499999,243.909,149.445)" d="M 96 -169 C 56 -169 48 -136 48 -96 C 48 -56 57 -21 96 -21 C 120 -21 137 -35 139 -59 L 171 -57 C 165 -20 140 4 97 4 C 38 4 21 -37 15 -95 C 5 -188 116 -226 162 -159 C 166 -152 167 -145 169 -137 L 137 -134 C 133 -155 121 -169 96 -169 Z " fill="#333333"/>
<path transform="matrix(.022499999,0,0,.022499999,247.959,149.445)" d="M 100 -194 C 162 -195 185 -157 185 -95 C 186 -32 158 4 99 4 C 40 4 16 -35 15 -95 C 15 -161 43 -194 100 -194 Z M 99 -20 C 143 -19 152 -51 152 -95 C 152 -138 144 -170 101 -170 C 58 -170 48 -138 48 -95 C 48 -52 58 -21 99 -20 Z " fill="#333333"/>
<path transform="matrix(.022499999,0,0,.022499999,252.459,149.445)" d="M 117 -194 C 206 -198 170 -78 177 0 L 145 0 L 145 -60.5 L 145 -121 C 145 -152 137 -170 106 -169 C 34 -167 62 -67 57 0 L 25 0 L 24 -190 L 54 -190 C 55 -180 53 -166 56 -158 C 67 -180 85 -193 117 -194 Z " fill="#333333"/>
<path transform="matrix(.022499999,0,0,.022499999,256.95899,149.445)" d="M 135 -143 C 132 -177 49 -181 48 -143 C 63 -90 163 -131 167 -53 C 171 25 17 21 10 -45 L 38 -50 C 42 -14 135 -5 136 -50 C 126 -106 23 -65 18 -140 C 14 -197 100 -203 140 -182 C 152 -175 161 -163 164 -147 Z " fill="#333333"/>
<path transform="matrix(.022499999,0,0,.022499999,261.009,149.445)" d="M 59 -47 C 57 -23 77 -18 97 -25 L 97 -13 L 97 -1 C 64 9 27 4 27 -40 L 27 -103.5 L 27 -167 L 5 -167 L 5 -178.5 L 5 -190 L 29 -190 L 38 -233 L 59 -233 L 59 -211.5 L 59 -190 L 94 -190 L 94 -178.5 L 94 -167 L 59 -167 L 59 -107 L 59 -47 Z " fill="#333333"/>
<path transform="matrix(.022499999,0,0,.022499999,263.259,149.445)" d="M 24 -231 L 24 -246 L 24 -261 L 56 -261 L 56 -246 L 56 -231 L 24 -231 Z M 24 0 L 24 -95 L 24 -190 L 56 -190 L 56 -95 L 56 0 L 24 0 Z " fill="#333333"/>
<path transform="matrix(.022499999,0,0,.022499999,265.0365,149.445)" d="M 59 -47 C 57 -23 77 -18 97 -25 L 97 -13 L 97 -1 C 64 9 27 4 27 -40 L 27 -103.5 L 27 -167 L 5 -167 L 5 -178.5 L 5 -190 L 29 -190 L 38 -233 L 59 -233 L 59 -211.5 L 59 -190 L 94 -190 L 94 -178.5 L 94 -167 L 59 -167 L 59 -107 L 59 -47 Z " fill="#333333"/>
<path transform="matrix(.022499999,0,0,.022499999,267.2865,149.445)" d="M 84 4 C -5 8 30 -112 23 -190 L 55 -190 L 55 -130 L 55 -70 C 55 -39 62 -20 94 -21 C 166 -23 139 -122 144 -190 L 175 -190 L 176 0 L 146 0 C 145 -10 147 -25 144 -33 C 133 -11 116 3 84 4 Z " fill="#333333"/>
<path transform="matrix(.022499999,0,0,.022499999,271.7865,149.445)" d="M 100 -194 C 163 -194 186 -152 184 -88 L 49 -88 C 49 -48 63 -21 102 -20 C 128 -19 145 -32 151 -49 L 179 -41 C 168 -13 142 4 102 4 C 44 4 14 -33 15 -96 C 16 -157 41 -194 100 -194 Z M 152 -113 C 158 -173 76 -190 55 -141 C 52 -134 49 -124 49 -113 L 152 -113 Z " fill="#333333"/>
<path transform="matrix(.022499999,0,0,.022499999,276.2865,149.445)" d="M 117 -194 C 206 -198 170 -78 177 0 L 145 0 L 145 -60.5 L 145 -121 C 145 -152 137 -170 106 -169 C 34 -167 62 -67 57 0 L 25 0 L 24 -190 L 54 -190 C 55 -180 53 -166 56 -158 C 67 -180 85 -193 117 -194 Z " fill="#333333"/>
<path transform="matrix(.022499999,0,0,.022499999,280.7865,149.445)" d="M 59 -47 C 57 -23 77 -18 97 -25 L 97 -13 L 97 -1 C 64 9 27 4 27 -40 L 27 -103.5 L 27 -167 L 5 -167 L 5 -178.5 L 5 -190 L 29 -190 L 38 -233 L 59 -233 L 59 -211.5 L 59 -190 L 94 -190 L 94 -178.5 L 94 -167 L 59 -167 L 59 -107 L 59 -47 Z " fill="#333333"/>
<path transform="matrix(.022499999,0,0,.022499999,283.0365,149.445)" d="M 135 -143 C 132 -177 49 -181 48 -143 C 63 -90 163 -131 167 -53 C 171 25 17 21 10 -45 L 38 -50 C 42 -14 135 -5 136 -50 C 126 -106 23 -65 18 -140 C 14 -197 100 -203 140 -182 C 152 -175 161 -163 164 -147 Z " fill="#333333"/>
</g>
<g id="Layer-1" data-name="Div">
<path transform="matrix(.45,0,0,.45,0,0)" stroke-width="1" stroke-linecap="butt" stroke-miterlimit="4" stroke-linejoin="miter" fill="none" stroke="#333333" d="M 338.7 317.7 L 499.1 317.7 "/>
<path transform="matrix(.45,0,0,.45,0,0)" d="M 338.7 318.2 L 338.3 318.2 L 338.2 317.2 L 338.7 317.2 Z " fill="#333333"/>
<path transform="matrix(.45,0,0,.45,0,0)" d="M 513.9 317.7 L 499.6 322.4 L 499.6 313.1 Z " fill="#333333"/>
<path transform="matrix(.45,0,0,.45,0,0)" stroke-width="1" stroke-linecap="butt" stroke-miterlimit="4" stroke-linejoin="miter" fill="none" stroke="#333333" d="M 513.9 317.7 L 499.6 322.4 L 499.6 313.1 Z "/>
</g>
<g id="Layer-1" data-name="Div">
<path transform="matrix(.45,0,0,.45,0,0)" stroke-width="1" stroke-linecap="butt" stroke-miterlimit="4" stroke-linejoin="miter" fill="none" stroke="#333333" d="M 665 317.7 L 722.1 317.7 C 728.3 317.7 733.3 322.7 733.3 328.9 C 733.3 335 738.2 340 744.4 340 L 785.6 340 "/>
<path transform="matrix(.45,0,0,.45,0,0)" d="M 665 318.2 L 664.4 318.2 L 664.7 317.2 L 665 317.2 Z " fill="#333333"/>
<path transform="matrix(.45,0,0,.45,0,0)" d="M 800.4 340 L 786.1 344.6 L 786.1 335.4 Z " fill="#333333"/>
<path transform="matrix(.45,0,0,.45,0,0)" stroke-width="1" stroke-linecap="butt" stroke-miterlimit="4" stroke-linejoin="miter" fill="none" stroke="#333333" d="M 800.4 340 L 786.1 344.6 L 786.1 335.4 Z "/>
</g>
<g id="Layer-1" data-name="Div">
<path transform="matrix(.45,0,0,.45,357.75,369)" d="M 29.9 7.7 C 31.1 3.5 35.6 0 40 0 L 172 0 C 176.4 0 179.1 3.5 177.9 7.7 L 150.1 112.3 C 148.9 116.5 144.4 120 140 120 L 8 120 C 3.6 120 .9 116.5 2.1 112.3 Z " fill="#ffeca9"/>
<path transform="matrix(.45,0,0,.45,357.75,369)" stroke-width="1" stroke-linecap="butt" stroke-miterlimit="4" stroke-linejoin="miter" fill="none" stroke="#333333" d="M 29.9 7.7 C 31.1 3.5 35.6 0 40 0 L 172 0 C 176.4 0 179.1 3.5 177.9 7.7 L 150.1 112.3 C 148.9 116.5 144.4 120 140 120 L 8 120 C 3.6 120 .9 116.5 2.1 112.3 Z "/>
<path transform="matrix(.022499999,0,0,.022499999,368.145,397.62)" d="M 30 0 L 30 -124 L 30 -248 L 217 -248 L 217 -234 L 217 -220 L 63 -220 L 63 -180.5 L 63 -141 L 207 -141 L 207 -127.5 L 207 -114 L 63 -114 L 63 -70.5 L 63 -27 L 225 -27 L 225 -13.5 L 225 0 L 30 0 Z " fill="#333333"/>
<path transform="matrix(.022499999,0,0,.022499999,373.54499,397.62)" d="M 117 -194 C 206 -198 170 -78 177 0 L 145 0 L 145 -60.5 L 145 -121 C 145 -152 137 -170 106 -169 C 34 -167 62 -67 57 0 L 25 0 L 24 -190 L 54 -190 C 55 -180 53 -166 56 -158 C 67 -180 85 -193 117 -194 Z " fill="#333333"/>
<path transform="matrix(.022499999,0,0,.022499999,378.04499,397.62)" d="M 135 -143 C 132 -177 49 -181 48 -143 C 63 -90 163 -131 167 -53 C 171 25 17 21 10 -45 L 38 -50 C 42 -14 135 -5 136 -50 C 126 -106 23 -65 18 -140 C 14 -197 100 -203 140 -182 C 152 -175 161 -163 164 -147 Z " fill="#333333"/>
<path transform="matrix(.022499999,0,0,.022499999,382.095,397.62)" d="M 100 -194 C 163 -194 186 -152 184 -88 L 49 -88 C 49 -48 63 -21 102 -20 C 128 -19 145 -32 151 -49 L 179 -41 C 168 -13 142 4 102 4 C 44 4 14 -33 15 -96 C 16 -157 41 -194 100 -194 Z M 152 -113 C 158 -173 76 -190 55 -141 C 52 -134 49 -124 49 -113 L 152 -113 Z " fill="#333333"/>
<path transform="matrix(.022499999,0,0,.022499999,386.595,397.62)" d="M 210 -169 C 143 -166 172 -64 166 0 L 135 0 L 135 -60.5 L 135 -121 C 135 -150 130 -171 100 -169 C 34 -165 62 -65 56 0 L 25 0 L 24 -190 L 54 -190 C 55 -180 53 -166 56 -158 C 66 -202 155 -208 163 -158 C 174 -179 190 -193 221 -194 C 306 -196 268 -75 276 0 L 245 0 L 245 -60.5 L 245 -121 C 245 -150 240 -170 210 -169 Z " fill="#333333"/>
<path transform="matrix(.022499999,0,0,.022499999,393.32249,397.62)" d="M 115 -194 C 168 -194 184 -155 185 -96 C 185 -30 162 4 115 4 C 84 3 66 -7 56 -30 L 54 0 L 23 0 L 24 -261 L 56 -261 L 56 -210.5 L 56 -160 C 66 -183 84 -194 115 -194 Z M 107 -20 C 147 -20 152 -54 152 -95 C 152 -135 147 -170 107 -169 C 65 -169 56 -137 56 -93 C 56 -50 66 -20 107 -20 Z " fill="#333333"/>
<path transform="matrix(.022499999,0,0,.022499999,397.82249,397.62)" d="M 24 0 L 24 -130.5 L 24 -261 L 56 -261 L 56 -130.5 L 56 0 L 24 0 Z " fill="#333333"/>
<path transform="matrix(.022499999,0,0,.022499999,399.59999,397.62)" d="M 100 -194 C 163 -194 186 -152 184 -88 L 49 -88 C 49 -48 63 -21 102 -20 C 128 -19 145 -32 151 -49 L 179 -41 C 168 -13 142 4 102 4 C 44 4 14 -33 15 -96 C 16 -157 41 -194 100 -194 Z M 152 -113 C 158 -173 76 -190 55 -141 C 52 -134 49 -124 49 -113 L 152 -113 Z " fill="#333333"/>
<path transform="matrix(.022499999,0,0,.022499999,404.09999,397.62)" d="" fill="#333333"/>
<path transform="matrix(.022499999,0,0,.022499999,406.35,397.62)" d="M 210 -169 C 143 -166 172 -64 166 0 L 135 0 L 135 -60.5 L 135 -121 C 135 -150 130 -171 100 -169 C 34 -165 62 -65 56 0 L 25 0 L 24 -190 L 54 -190 C 55 -180 53 -166 56 -158 C 66 -202 155 -208 163 -158 C 174 -179 190 -193 221 -194 C 306 -196 268 -75 276 0 L 245 0 L 245 -60.5 L 245 -121 C 245 -150 240 -170 210 -169 Z " fill="#333333"/>
<path transform="matrix(.022499999,0,0,.022499999,413.0775,397.62)" d="M 100 -194 C 162 -195 185 -157 185 -95 C 186 -32 158 4 99 4 C 40 4 16 -35 15 -95 C 15 -161 43 -194 100 -194 Z M 99 -20 C 143 -19 152 -51 152 -95 C 152 -138 144 -170 101 -170 C 58 -170 48 -138 48 -95 C 48 -52 58 -21 99 -20 Z " fill="#333333"/>
<path transform="matrix(.022499999,0,0,.022499999,417.5775,397.62)" d="M 85 -194 C 116 -194 133 -181 145 -161 L 144 -261 L 176 -261 L 177 0 L 147 0 C 145 -10 147 -23 144 -31 C 134 -8 116 4 85 4 C 32 4 16 -35 15 -94 C 15 -160 38 -194 85 -194 Z M 94 -170 C 54 -170 48 -136 48 -95 C 48 -55 54 -21 93 -21 C 135 -21 144 -53 144 -97 C 144 -139 135 -171 94 -170 Z " fill="#333333"/>
<path transform="matrix(.022499999,0,0,.022499999,422.0775,397.62)" d="M 100 -194 C 163 -194 186 -152 184 -88 L 49 -88 C 49 -48 63 -21 102 -20 C 128 -19 145 -32 151 -49 L 179 -41 C 168 -13 142 4 102 4 C 44 4 14 -33 15 -96 C 16 -157 41 -194 100 -194 Z M 152 -113 C 158 -173 76 -190 55 -141 C 52 -134 49 -124 49 -113 L 152 -113 Z " fill="#333333"/>
<path transform="matrix(.022499999,0,0,.022499999,426.5775,397.62)" d="M 24 0 L 24 -130.5 L 24 -261 L 56 -261 L 56 -130.5 L 56 0 L 24 0 Z " fill="#333333"/>
</g>
<g id="Layer-1" data-name="Div">
<path transform="matrix(.45,0,0,.45,0,0)" stroke-width="1" stroke-linecap="butt" stroke-miterlimit="4" stroke-linejoin="miter" fill="none" stroke="#333333" d="M 882.5 761 L 882.5 790 L 882.5 803.1 "/>
<path transform="matrix(.45,0,0,.45,0,0)" d="M 883 761 L 882 761 L 882 760.5 L 883 760.5 Z " fill="#333333"/>
<path transform="matrix(.45,0,0,.45,0,0)" d="M 882.5 817.9 L 877.9 803.6 L 887.1 803.6 Z " fill="#333333"/>
<path transform="matrix(.45,0,0,.45,0,0)" stroke-width="1" stroke-linecap="butt" stroke-miterlimit="4" stroke-linejoin="miter" fill="none" stroke="#333333" d="M 882.5 817.9 L 877.9 803.6 L 887.1 803.6 Z "/>
</g>
<g id="Layer-1" data-name="Div">
<path transform="matrix(.45,0,0,.45,0,0)" stroke-width="1" stroke-linecap="butt" stroke-miterlimit="4" stroke-linejoin="miter" fill="none" stroke="#333333" d="M 590 378.7 L 590 868 C 590 874.6 595.4 880 602 880 L 794.1 880 "/>
<path transform="matrix(.45,0,0,.45,0,0)" d="M 590.5 378.7 L 589.5 378.7 L 589.5 378.2 L 590.5 378.2 Z " fill="#333333"/>
<path transform="matrix(.45,0,0,.45,0,0)" d="M 808.9 880 L 794.6 884.6 L 794.6 875.4 Z " fill="#333333"/>
<path transform="matrix(.45,0,0,.45,0,0)" stroke-width="1" stroke-linecap="butt" stroke-miterlimit="4" stroke-linejoin="miter" fill="none" stroke="#333333" d="M 808.9 880 L 794.6 884.6 L 794.6 875.4 Z "/>
</g>
<g id="Layer-1" data-name="Div">
<path transform="matrix(.45,0,0,.45,423,504)" d="M 120 108 C 120 114.6 93.1 120 60 120 C 26.9 120 0 114.6 0 108 L 0 12 C 0 5.4 26.9 0 60 0 C 93.1 0 120 5.4 120 12 Z " fill="#99d2f2"/>
<path transform="matrix(.45,0,0,.45,423,504)" stroke-width="1" stroke-linecap="butt" stroke-miterlimit="4" stroke-linejoin="miter" fill="none" stroke="#333333" d="M 120 108 C 120 114.6 93.1 120 60 120 C 26.9 120 0 114.6 0 108 L 0 12 C 0 5.4 26.9 0 60 0 C 93.1 0 120 5.4 120 12 Z "/>
<path transform="matrix(.45,0,0,.45,423,504)" stroke-width="1" stroke-linecap="butt" stroke-miterlimit="4" stroke-linejoin="miter" fill="none" stroke="#333333" d="M 120 12 C 120 18.6 93.1 24 60 24 C 26.9 24 0 18.6 0 12 "/>
<path transform="matrix(.022499999,0,0,.022499999,436.059,538.01998)" d="M 30 -248 C 148 -255 246 -240 243 -126 C 240 -48 200 0 122 0 L 30 0 L 30 -124 L 30 -248 Z M 63 -27 C 152 -19 209 -43 209 -126 C 209 -209 149 -227 63 -221 L 63 -124 L 63 -27 Z " fill="#333333"/>
<path transform="matrix(.022499999,0,0,.022499999,441.8865,538.01998)" d="M 141 -36 C 126 -15 110 5 73 4 C 37 3 15 -17 15 -53 C 14 -117 78 -116 140 -116 C 143 -151 131 -170 99 -170 C 75 -169 58 -163 57 -139 L 24 -142 C 29 -179 57 -194 100 -194 C 145 -194 172 -174 172 -130 L 172 -89 L 172 -48 C 171 -28 179 -16 200 -21 L 200 -11 L 200 -1 C 169 8 139 -3 141 -36 Z M 48 -53 C 48 -33 60 -20 80 -20 C 121 -23 143 -49 140 -94 C 97 -92 48 -99 48 -53 Z " fill="#333333"/>
<path transform="matrix(.022499999,0,0,.022499999,446.38648,538.01998)" d="M 59 -47 C 57 -23 77 -18 97 -25 L 97 -13 L 97 -1 C 64 9 27 4 27 -40 L 27 -103.5 L 27 -167 L 5 -167 L 5 -178.5 L 5 -190 L 29 -190 L 38 -233 L 59 -233 L 59 -211.5 L 59 -190 L 94 -190 L 94 -178.5 L 94 -167 L 59 -167 L 59 -107 L 59 -47 Z " fill="#333333"/>
<path transform="matrix(.022499999,0,0,.022499999,448.63648,538.01998)" d="M 141 -36 C 126 -15 110 5 73 4 C 37 3 15 -17 15 -53 C 14 -117 78 -116 140 -116 C 143 -151 131 -170 99 -170 C 75 -169 58 -163 57 -139 L 24 -142 C 29 -179 57 -194 100 -194 C 145 -194 172 -174 172 -130 L 172 -89 L 172 -48 C 171 -28 179 -16 200 -21 L 200 -11 L 200 -1 C 169 8 139 -3 141 -36 Z M 48 -53 C 48 -33 60 -20 80 -20 C 121 -23 143 -49 140 -94 C 97 -92 48 -99 48 -53 Z " fill="#333333"/>
<path transform="matrix(.022499999,0,0,.022499999,453.13648,538.01998)" d="M 135 -143 C 132 -177 49 -181 48 -143 C 63 -90 163 -131 167 -53 C 171 25 17 21 10 -45 L 38 -50 C 42 -14 135 -5 136 -50 C 126 -106 23 -65 18 -140 C 14 -197 100 -203 140 -182 C 152 -175 161 -163 164 -147 Z " fill="#333333"/>
<path transform="matrix(.022499999,0,0,.022499999,457.1865,538.01998)" d="M 100 -194 C 163 -194 186 -152 184 -88 L 49 -88 C 49 -48 63 -21 102 -20 C 128 -19 145 -32 151 -49 L 179 -41 C 168 -13 142 4 102 4 C 44 4 14 -33 15 -96 C 16 -157 41 -194 100 -194 Z M 152 -113 C 158 -173 76 -190 55 -141 C 52 -134 49 -124 49 -113 L 152 -113 Z " fill="#333333"/>
<path transform="matrix(.022499999,0,0,.022499999,461.6865,538.01998)" d="M 59 -47 C 57 -23 77 -18 97 -25 L 97 -13 L 97 -1 C 64 9 27 4 27 -40 L 27 -103.5 L 27 -167 L 5 -167 L 5 -178.5 L 5 -190 L 29 -190 L 38 -233 L 59 -233 L 59 -211.5 L 59 -190 L 94 -190 L 94 -178.5 L 94 -167 L 59 -167 L 59 -107 L 59 -47 Z " fill="#333333"/>
</g>
<g id="Layer-1" data-name="Div">
<path transform="matrix(.45,0,0,.45,240.75,520.64999)" d="M 0 8 C 0 3.6 3.6 0 8 0 L 252 0 C 256.4 0 260 3.6 260 8 L 260 112 C 260 116.4 256.4 120 252 120 L 8 120 C 3.6 120 0 116.4 0 112 Z " fill="#c7e8ac"/>
<path transform="matrix(.45,0,0,.45,240.75,520.64999)" stroke-width="1" stroke-linecap="butt" stroke-miterlimit="4" stroke-linejoin="miter" fill="none" stroke="#333333" d="M 0 8 C 0 3.6 3.6 0 8 0 L 252 0 C 256.4 0 260 3.6 260 8 L 260 112 C 260 116.4 256.4 120 252 120 L 8 120 C 3.6 120 0 116.4 0 112 Z "/>
<path transform="matrix(.45,0,0,.45,240.75,520.64999)" stroke-width="1" stroke-linecap="butt" stroke-miterlimit="4" stroke-linejoin="miter" fill="none" stroke="#333333" d="M 26 0 L 26 120 M 234 0 L 234 120 "/>
<path transform="matrix(.022499999,0,0,.022499999,257.22,549.26998)" d="M 115 -194 C 170 -193 185 -153 185 -96 C 185 -39 169 2 115 4 C 84 4 66 -9 55 -30 L 56 75 L 24 75 L 23 -190 L 54 -190 L 56 -160 C 66 -181 84 -194 115 -194 Z M 107 -20 C 147 -20 152 -54 152 -95 C 152 -136 146 -168 107 -169 C 65 -169 56 -137 56 -93 C 56 -50 66 -20 107 -20 Z " fill="#333333"/>
<path transform="matrix(.022499999,0,0,.022499999,261.72,549.26998)" d="M 114 -163 C 36 -179 61 -72 57 0 L 25 0 L 24 -190 L 54 -190 C 55 -178 53 -161 56 -151 C 62 -178 79 -200 114 -192 L 114 -177.5 L 114 -163 Z " fill="#333333"/>
<path transform="matrix(.022499999,0,0,.022499999,264.3975,549.26998)" d="M 100 -194 C 163 -194 186 -152 184 -88 L 49 -88 C 49 -48 63 -21 102 -20 C 128 -19 145 -32 151 -49 L 179 -41 C 168 -13 142 4 102 4 C 44 4 14 -33 15 -96 C 16 -157 41 -194 100 -194 Z M 152 -113 C 158 -173 76 -190 55 -141 C 52 -134 49 -124 49 -113 L 152 -113 Z " fill="#333333"/>
<path transform="matrix(.022499999,0,0,.022499999,268.8975,549.26998)" d="M 85 -194 C 116 -194 133 -181 145 -161 L 144 -261 L 176 -261 L 177 0 L 147 0 C 145 -10 147 -23 144 -31 C 134 -8 116 4 85 4 C 32 4 16 -35 15 -94 C 15 -160 38 -194 85 -194 Z M 94 -170 C 54 -170 48 -136 48 -95 C 48 -55 54 -21 93 -21 C 135 -21 144 -53 144 -97 C 144 -139 135 -171 94 -170 Z " fill="#333333"/>
<path transform="matrix(.022499999,0,0,.022499999,273.3975,549.26998)" d="M 24 -231 L 24 -246 L 24 -261 L 56 -261 L 56 -246 L 56 -231 L 24 -231 Z M 24 0 L 24 -95 L 24 -190 L 56 -190 L 56 -95 L 56 0 L 24 0 Z " fill="#333333"/>
<path transform="matrix(.022499999,0,0,.022499999,275.175,549.26998)" d="M 96 -169 C 56 -169 48 -136 48 -96 C 48 -56 57 -21 96 -21 C 120 -21 137 -35 139 -59 L 171 -57 C 165 -20 140 4 97 4 C 38 4 21 -37 15 -95 C 5 -188 116 -226 162 -159 C 166 -152 167 -145 169 -137 L 137 -134 C 133 -155 121 -169 96 -169 Z " fill="#333333"/>
<path transform="matrix(.022499999,0,0,.022499999,279.225,549.26998)" d="M 59 -47 C 57 -23 77 -18 97 -25 L 97 -13 L 97 -1 C 64 9 27 4 27 -40 L 27 -103.5 L 27 -167 L 5 -167 L 5 -178.5 L 5 -190 L 29 -190 L 38 -233 L 59 -233 L 59 -211.5 L 59 -190 L 94 -190 L 94 -178.5 L 94 -167 L 59 -167 L 59 -107 L 59 -47 Z " fill="#333333"/>
<path transform="matrix(.022499999,0,0,.022499999,281.475,549.26998)" d="M -5 72 L -5 60.5 L -5 49 L 204 49 L 204 60.5 L 204 72 L -5 72 Z " fill="#333333"/>
<path transform="matrix(.022499999,0,0,.022499999,285.975,549.26998)" d="M 115 -194 C 170 -193 185 -153 185 -96 C 185 -39 169 2 115 4 C 84 4 66 -9 55 -30 L 56 75 L 24 75 L 23 -190 L 54 -190 L 56 -160 C 66 -181 84 -194 115 -194 Z M 107 -20 C 147 -20 152 -54 152 -95 C 152 -136 146 -168 107 -169 C 65 -169 56 -137 56 -93 C 56 -50 66 -20 107 -20 Z " fill="#333333"/>
<path transform="matrix(.022499999,0,0,.022499999,290.475,549.26998)" d="M 114 -163 C 36 -179 61 -72 57 0 L 25 0 L 24 -190 L 54 -190 C 55 -178 53 -161 56 -151 C 62 -178 79 -200 114 -192 L 114 -177.5 L 114 -163 Z " fill="#333333"/>
<path transform="matrix(.022499999,0,0,.022499999,293.1525,549.26998)" d="M 100 -194 C 162 -195 185 -157 185 -95 C 186 -32 158 4 99 4 C 40 4 16 -35 15 -95 C 15 -161 43 -194 100 -194 Z M 99 -20 C 143 -19 152 -51 152 -95 C 152 -138 144 -170 101 -170 C 58 -170 48 -138 48 -95 C 48 -52 58 -21 99 -20 Z " fill="#333333"/>
<path transform="matrix(.022499999,0,0,.022499999,297.6525,549.26998)" d="M 115 -194 C 168 -194 184 -155 185 -96 C 185 -30 162 4 115 4 C 84 3 66 -7 56 -30 L 54 0 L 23 0 L 24 -261 L 56 -261 L 56 -210.5 L 56 -160 C 66 -183 84 -194 115 -194 Z M 107 -20 C 147 -20 152 -54 152 -95 C 152 -135 147 -170 107 -169 C 65 -169 56 -137 56 -93 C 56 -50 66 -20 107 -20 Z " fill="#333333"/>
<path transform="matrix(.022499999,0,0,.022499999,302.1525,549.26998)" d="M 141 -36 C 126 -15 110 5 73 4 C 37 3 15 -17 15 -53 C 14 -117 78 -116 140 -116 C 143 -151 131 -170 99 -170 C 75 -169 58 -163 57 -139 L 24 -142 C 29 -179 57 -194 100 -194 C 145 -194 172 -174 172 -130 L 172 -89 L 172 -48 C 171 -28 179 -16 200 -21 L 200 -11 L 200 -1 C 169 8 139 -3 141 -36 Z M 48 -53 C 48 -33 60 -20 80 -20 C 121 -23 143 -49 140 -94 C 97 -92 48 -99 48 -53 Z " fill="#333333"/>
<path transform="matrix(.022499999,0,0,.022499999,306.6525,549.26998)" d="M -5 72 L -5 60.5 L -5 49 L 204 49 L 204 60.5 L 204 72 L -5 72 Z " fill="#333333"/>
<path transform="matrix(.022499999,0,0,.022499999,311.1525,549.26998)" d="M 59 -47 C 57 -23 77 -18 97 -25 L 97 -13 L 97 -1 C 64 9 27 4 27 -40 L 27 -103.5 L 27 -167 L 5 -167 L 5 -178.5 L 5 -190 L 29 -190 L 38 -233 L 59 -233 L 59 -211.5 L 59 -190 L 94 -190 L 94 -178.5 L 94 -167 L 59 -167 L 59 -107 L 59 -47 Z " fill="#333333"/>
<path transform="matrix(.022499999,0,0,.022499999,313.4025,549.26998)" d="M 100 -194 C 162 -195 185 -157 185 -95 C 186 -32 158 4 99 4 C 40 4 16 -35 15 -95 C 15 -161 43 -194 100 -194 Z M 99 -20 C 143 -19 152 -51 152 -95 C 152 -138 144 -170 101 -170 C 58 -170 48 -138 48 -95 C 48 -52 58 -21 99 -20 Z " fill="#333333"/>
<path transform="matrix(.022499999,0,0,.022499999,317.9025,549.26998)" d="M 115 -194 C 170 -193 185 -153 185 -96 C 185 -39 169 2 115 4 C 84 4 66 -9 55 -30 L 56 75 L 24 75 L 23 -190 L 54 -190 L 56 -160 C 66 -181 84 -194 115 -194 Z M 107 -20 C 147 -20 152 -54 152 -95 C 152 -136 146 -168 107 -169 C 65 -169 56 -137 56 -93 C 56 -50 66 -20 107 -20 Z " fill="#333333"/>
<path transform="matrix(.022499999,0,0,.022499999,322.4025,549.26998)" d="M 24 0 L 24 -130.5 L 24 -261 L 56 -261 L 56 -130.5 L 56 0 L 24 0 Z " fill="#333333"/>
<path transform="matrix(.022499999,0,0,.022499999,324.18,549.26998)" d="M -5 72 L -5 60.5 L -5 49 L 204 49 L 204 60.5 L 204 72 L -5 72 Z " fill="#333333"/>
<path transform="matrix(.022499999,0,0,.022499999,328.68,549.26998)" d="M 101 -234 C 70 -243 59 -224 63 -190 L 101 -190 L 101 -178.5 L 101 -167 L 63 -167 L 63 -83.5 L 63 0 L 32 0 L 32 -83.5 L 32 -167 L 5 -167 L 5 -178.5 L 5 -190 L 32 -190 C 25 -242 49 -272 101 -258 L 101 -246 L 101 -234 Z " fill="#333333"/>
<path transform="matrix(.022499999,0,0,.022499999,330.93,549.26998)" d="M 141 -36 C 126 -15 110 5 73 4 C 37 3 15 -17 15 -53 C 14 -117 78 -116 140 -116 C 143 -151 131 -170 99 -170 C 75 -169 58 -163 57 -139 L 24 -142 C 29 -179 57 -194 100 -194 C 145 -194 172 -174 172 -130 L 172 -89 L 172 -48 C 171 -28 179 -16 200 -21 L 200 -11 L 200 -1 C 169 8 139 -3 141 -36 Z M 48 -53 C 48 -33 60 -20 80 -20 C 121 -23 143 -49 140 -94 C 97 -92 48 -99 48 -53 Z " fill="#333333"/>
<path transform="matrix(.022499999,0,0,.022499999,335.43,549.26998)" d="M 135 -143 C 132 -177 49 -181 48 -143 C 63 -90 163 -131 167 -53 C 171 25 17 21 10 -45 L 38 -50 C 42 -14 135 -5 136 -50 C 126 -106 23 -65 18 -140 C 14 -197 100 -203 140 -182 C 152 -175 161 -163 164 -147 Z " fill="#333333"/>
<path transform="matrix(.022499999,0,0,.022499999,339.47999,549.26998)" d="M 59 -47 C 57 -23 77 -18 97 -25 L 97 -13 L 97 -1 C 64 9 27 4 27 -40 L 27 -103.5 L 27 -167 L 5 -167 L 5 -178.5 L 5 -190 L 29 -190 L 38 -233 L 59 -233 L 59 -211.5 L 59 -190 L 94 -190 L 94 -178.5 L 94 -167 L 59 -167 L 59 -107 L 59 -47 Z " fill="#333333"/>
</g>
<g id="Layer-1" data-name="Div">
<path transform="matrix(.45,0,0,.45,0,0)" stroke-width="1" stroke-linecap="butt" stroke-miterlimit="4" stroke-linejoin="miter" fill="none" stroke="#333333" d="M 887.5 941 L 887.5 1036 C 887.5 1043 882.1 1048 875.5 1048 L 677 1048 C 670.4 1048 665 1054 665 1060 L 665 1140 "/>
<path transform="matrix(.45,0,0,.45,0,0)" d="M 888 941 L 887 941 L 887 940.5 L 888 940.5 Z " fill="#333333"/>
<path transform="matrix(.45,0,0,.45,0,0)" d="M 665 1155 L 660.4 1141 L 669.6 1141 Z " fill="#333333"/>
<path transform="matrix(.45,0,0,.45,0,0)" stroke-width="1" stroke-linecap="butt" stroke-miterlimit="4" stroke-linejoin="miter" fill="none" stroke="#333333" d="M 665 1155 L 660.4 1141 L 669.6 1141 Z "/>
</g>
<g id="Layer-1" data-name="Div">
<path transform="matrix(.45,0,0,.45,0,0)" stroke-width="1" stroke-linecap="butt" stroke-miterlimit="4" stroke-linejoin="miter" fill="none" stroke="#333333" d="M 939 1180 L 879.5 1180 C 872.9 1180 867.5 1185 867.5 1192 L 867.5 1205 C 867.5 1212 862.1 1217 855.5 1217 L 811.9 1217 "/>
<path transform="matrix(.45,0,0,.45,0,0)" d="M 939.5 1180 L 939 1180 L 939 1179 L 939.5 1179 Z " fill="#333333"/>
<path transform="matrix(.45,0,0,.45,0,0)" d="M 797.1 1217 L 811.4 1213 L 811.4 1222 Z " fill="#333333"/>
<path transform="matrix(.45,0,0,.45,0,0)" stroke-width="1" stroke-linecap="butt" stroke-miterlimit="4" stroke-linejoin="miter" fill="none" stroke="#333333" d="M 797.1 1217 L 811.4 1213 L 811.4 1222 Z "/>
</g>
<g id="Layer-1" data-name="Div">
<path transform="matrix(.45,0,0,.45,162,61.964998)" d="M 120 108 C 120 114.6 93.1 120 60 120 C 26.9 120 0 114.6 0 108 L 0 12 C 0 5.4 26.9 0 60 0 C 93.1 0 120 5.4 120 12 Z " fill="#99d2f2"/>
<path transform="matrix(.45,0,0,.45,162,61.964998)" stroke-width="1" stroke-linecap="butt" stroke-miterlimit="4" stroke-linejoin="miter" fill="none" stroke="#333333" d="M 120 108 C 120 114.6 93.1 120 60 120 C 26.9 120 0 114.6 0 108 L 0 12 C 0 5.4 26.9 0 60 0 C 93.1 0 120 5.4 120 12 Z "/>
<path transform="matrix(.45,0,0,.45,162,61.964998)" stroke-width="1" stroke-linecap="butt" stroke-miterlimit="4" stroke-linejoin="miter" fill="none" stroke="#333333" d="M 120 12 C 120 18.6 93.1 24 60 24 C 26.9 24 0 18.6 0 12 "/>
<path transform="matrix(.022499999,0,0,.022499999,168.804,91.125)" d="M 190 0 L 58 -211 L 59 0 L 30 0 L 30 -124 L 30 -248 L 69 -248 L 202 -35 L 200 -248 L 231 -248 L 231 -124 L 231 0 L 190 0 Z " fill="#333333"/>
<path transform="matrix(.022499999,0,0,.022499999,174.6315,91.125)" d="M 190 0 L 58 -211 L 59 0 L 30 0 L 30 -124 L 30 -248 L 69 -248 L 202 -35 L 200 -248 L 231 -248 L 231 -124 L 231 0 L 190 0 Z " fill="#333333"/>
<path transform="matrix(.022499999,0,0,.022499999,180.459,91.125)" d="" fill="#333333"/>
<path transform="matrix(.022499999,0,0,.022499999,182.709,91.125)" d="M 59 -47 C 57 -23 77 -18 97 -25 L 97 -13 L 97 -1 C 64 9 27 4 27 -40 L 27 -103.5 L 27 -167 L 5 -167 L 5 -178.5 L 5 -190 L 29 -190 L 38 -233 L 59 -233 L 59 -211.5 L 59 -190 L 94 -190 L 94 -178.5 L 94 -167 L 59 -167 L 59 -107 L 59 -47 Z " fill="#333333"/>
<path transform="matrix(.022499999,0,0,.022499999,184.959,91.125)" d="M 114 -163 C 36 -179 61 -72 57 0 L 25 0 L 24 -190 L 54 -190 C 55 -178 53 -161 56 -151 C 62 -178 79 -200 114 -192 L 114 -177.5 L 114 -163 Z " fill="#333333"/>
<path transform="matrix(.022499999,0,0,.022499999,187.6365,91.125)" d="M 141 -36 C 126 -15 110 5 73 4 C 37 3 15 -17 15 -53 C 14 -117 78 -116 140 -116 C 143 -151 131 -170 99 -170 C 75 -169 58 -163 57 -139 L 24 -142 C 29 -179 57 -194 100 -194 C 145 -194 172 -174 172 -130 L 172 -89 L 172 -48 C 171 -28 179 -16 200 -21 L 200 -11 L 200 -1 C 169 8 139 -3 141 -36 Z M 48 -53 C 48 -33 60 -20 80 -20 C 121 -23 143 -49 140 -94 C 97 -92 48 -99 48 -53 Z " fill="#333333"/>
<path transform="matrix(.022499999,0,0,.022499999,192.1365,91.125)" d="M 24 -231 L 24 -246 L 24 -261 L 56 -261 L 56 -246 L 56 -231 L 24 -231 Z M 24 0 L 24 -95 L 24 -190 L 56 -190 L 56 -95 L 56 0 L 24 0 Z " fill="#333333"/>
<path transform="matrix(.022499999,0,0,.022499999,193.914,91.125)" d="M 117 -194 C 206 -198 170 -78 177 0 L 145 0 L 145 -60.5 L 145 -121 C 145 -152 137 -170 106 -169 C 34 -167 62 -67 57 0 L 25 0 L 24 -190 L 54 -190 C 55 -180 53 -166 56 -158 C 67 -180 85 -193 117 -194 Z " fill="#333333"/>
<path transform="matrix(.022499999,0,0,.022499999,198.414,91.125)" d="M 24 -231 L 24 -246 L 24 -261 L 56 -261 L 56 -246 L 56 -231 L 24 -231 Z M 24 0 L 24 -95 L 24 -190 L 56 -190 L 56 -95 L 56 0 L 24 0 Z " fill="#333333"/>
<path transform="matrix(.022499999,0,0,.022499999,200.1915,91.125)" d="M 117 -194 C 206 -198 170 -78 177 0 L 145 0 L 145 -60.5 L 145 -121 C 145 -152 137 -170 106 -169 C 34 -167 62 -67 57 0 L 25 0 L 24 -190 L 54 -190 C 55 -180 53 -166 56 -158 C 67 -180 85 -193 117 -194 Z " fill="#333333"/>
<path transform="matrix(.022499999,0,0,.022499999,204.6915,91.125)" d="M 177 -190 C 167 -65 218 103 67 71 C 44 65 29 51 23 28 L 55 23 C 70 70 155 55 144 -5 L 144 -20 L 144 -35 C 133 -14 115 1 83 1 C 29 1 15 -40 15 -95 C 15 -151 31 -192 86 -193 C 115 -194 134 -177 145 -158 C 146 -168 145 -181 147 -190 L 177 -190 Z M 94 -22 C 130 -22 144 -54 144 -95 C 144 -137 130 -170 94 -170 C 55 -170 48 -136 48 -95 C 48 -54 54 -22 94 -22 Z " fill="#333333"/>
<path transform="matrix(.022499999,0,0,.022499999,209.1915,91.125)" d="" fill="#333333"/>
<path transform="matrix(.022499999,0,0,.022499999,175.725,100.845)" d="M 85 -194 C 116 -194 133 -181 145 -161 L 144 -261 L 176 -261 L 177 0 L 147 0 C 145 -10 147 -23 144 -31 C 134 -8 116 4 85 4 C 32 4 16 -35 15 -94 C 15 -160 38 -194 85 -194 Z M 94 -170 C 54 -170 48 -136 48 -95 C 48 -55 54 -21 93 -21 C 135 -21 144 -53 144 -97 C 144 -139 135 -171 94 -170 Z " fill="#333333"/>
<path transform="matrix(.022499999,0,0,.022499999,180.225,100.845)" d="M 141 -36 C 126 -15 110 5 73 4 C 37 3 15 -17 15 -53 C 14 -117 78 -116 140 -116 C 143 -151 131 -170 99 -170 C 75 -169 58 -163 57 -139 L 24 -142 C 29 -179 57 -194 100 -194 C 145 -194 172 -174 172 -130 L 172 -89 L 172 -48 C 171 -28 179 -16 200 -21 L 200 -11 L 200 -1 C 169 8 139 -3 141 -36 Z M 48 -53 C 48 -33 60 -20 80 -20 C 121 -23 143 -49 140 -94 C 97 -92 48 -99 48 -53 Z " fill="#333333"/>
<path transform="matrix(.022499999,0,0,.022499999,184.725,100.845)" d="M 59 -47 C 57 -23 77 -18 97 -25 L 97 -13 L 97 -1 C 64 9 27 4 27 -40 L 27 -103.5 L 27 -167 L 5 -167 L 5 -178.5 L 5 -190 L 29 -190 L 38 -233 L 59 -233 L 59 -211.5 L 59 -190 L 94 -190 L 94 -178.5 L 94 -167 L 59 -167 L 59 -107 L 59 -47 Z " fill="#333333"/>
<path transform="matrix(.022499999,0,0,.022499999,186.975,100.845)" d="M 141 -36 C 126 -15 110 5 73 4 C 37 3 15 -17 15 -53 C 14 -117 78 -116 140 -116 C 143 -151 131 -170 99 -170 C 75 -169 58 -163 57 -139 L 24 -142 C 29 -179 57 -194 100 -194 C 145 -194 172 -174 172 -130 L 172 -89 L 172 -48 C 171 -28 179 -16 200 -21 L 200 -11 L 200 -1 C 169 8 139 -3 141 -36 Z M 48 -53 C 48 -33 60 -20 80 -20 C 121 -23 143 -49 140 -94 C 97 -92 48 -99 48 -53 Z " fill="#333333"/>
<path transform="matrix(.022499999,0,0,.022499999,191.475,100.845)" d="M 135 -143 C 132 -177 49 -181 48 -143 C 63 -90 163 -131 167 -53 C 171 25 17 21 10 -45 L 38 -50 C 42 -14 135 -5 136 -50 C 126 -106 23 -65 18 -140 C 14 -197 100 -203 140 -182 C 152 -175 161 -163 164 -147 Z " fill="#333333"/>
<path transform="matrix(.022499999,0,0,.022499999,195.52501,100.845)" d="M 100 -194 C 163 -194 186 -152 184 -88 L 49 -88 C 49 -48 63 -21 102 -20 C 128 -19 145 -32 151 -49 L 179 -41 C 168 -13 142 4 102 4 C 44 4 14 -33 15 -96 C 16 -157 41 -194 100 -194 Z M 152 -113 C 158 -173 76 -190 55 -141 C 52 -134 49 -124 49 -113 L 152 -113 Z " fill="#333333"/>
<path transform="matrix(.022499999,0,0,.022499999,200.02501,100.845)" d="M 59 -47 C 57 -23 77 -18 97 -25 L 97 -13 L 97 -1 C 64 9 27 4 27 -40 L 27 -103.5 L 27 -167 L 5 -167 L 5 -178.5 L 5 -190 L 29 -190 L 38 -233 L 59 -233 L 59 -211.5 L 59 -190 L 94 -190 L 94 -178.5 L 94 -167 L 59 -167 L 59 -107 L 59 -47 Z " fill="#333333"/>
</g>
<g id="Layer-1" data-name="Div">
<path transform="matrix(.45,0,0,.45,0,0)" stroke-width="1" stroke-linecap="butt" stroke-miterlimit="4" stroke-linejoin="miter" fill="none" stroke="#333333" d="M 359 197.7 L 272 197.7 C 265.4 197.7 260 203.1 260 209.7 L 260 240.8 "/>
<path transform="matrix(.45,0,0,.45,0,0)" d="M 359.5 198.2 L 359 198.2 L 359 197.2 L 359.5 197.2 Z " fill="#333333"/>
<path transform="matrix(.45,0,0,.45,0,0)" d="M 260 255.6 L 255.4 241.3 L 264.6 241.3 Z " fill="#333333"/>
<path transform="matrix(.45,0,0,.45,0,0)" stroke-width="1" stroke-linecap="butt" stroke-miterlimit="4" stroke-linejoin="miter" fill="none" stroke="#333333" d="M 260 255.6 L 255.4 241.3 L 264.6 241.3 Z "/>
</g>
<g id="Layer-1" data-name="Div">
<path transform="matrix(.45,0,0,.45,315,621)" d="M 29.9 7.7 C 31.1 3.5 35.6 0 40 0 L 152 0 C 156.4 0 159.1 3.5 157.9 7.7 L 130.1 112.3 C 128.9 116.5 124.4 120 120 120 L 8 120 C 3.6 120 .9 116.5 2.1 112.3 Z " fill="#ffc374"/>
<path transform="matrix(.45,0,0,.45,315,621)" stroke-width="1" stroke-linecap="butt" stroke-miterlimit="4" stroke-linejoin="miter" fill="none" stroke="#333333" d="M 29.9 7.7 C 31.1 3.5 35.6 0 40 0 L 152 0 C 156.4 0 159.1 3.5 157.9 7.7 L 130.1 112.3 C 128.9 116.5 124.4 120 120 120 L 8 120 C 3.6 120 .9 116.5 2.1 112.3 Z "/>
<path transform="matrix(.022499999,0,0,.022499999,329.679,644.76)" d="M 115 -194 C 170 -193 185 -153 185 -96 C 185 -39 169 2 115 4 C 84 4 66 -9 55 -30 L 56 75 L 24 75 L 23 -190 L 54 -190 L 56 -160 C 66 -181 84 -194 115 -194 Z M 107 -20 C 147 -20 152 -54 152 -95 C 152 -136 146 -168 107 -169 C 65 -169 56 -137 56 -93 C 56 -50 66 -20 107 -20 Z " fill="#333333"/>
<path transform="matrix(.022499999,0,0,.022499999,334.179,644.76)" d="M 114 -163 C 36 -179 61 -72 57 0 L 25 0 L 24 -190 L 54 -190 C 55 -178 53 -161 56 -151 C 62 -178 79 -200 114 -192 L 114 -177.5 L 114 -163 Z " fill="#333333"/>
<path transform="matrix(.022499999,0,0,.022499999,336.85649,644.76)" d="M 100 -194 C 162 -195 185 -157 185 -95 C 186 -32 158 4 99 4 C 40 4 16 -35 15 -95 C 15 -161 43 -194 100 -194 Z M 99 -20 C 143 -19 152 -51 152 -95 C 152 -138 144 -170 101 -170 C 58 -170 48 -138 48 -95 C 48 -52 58 -21 99 -20 Z " fill="#333333"/>
<path transform="matrix(.022499999,0,0,.022499999,341.35649,644.76)" d="M 115 -194 C 168 -194 184 -155 185 -96 C 185 -30 162 4 115 4 C 84 3 66 -7 56 -30 L 54 0 L 23 0 L 24 -261 L 56 -261 L 56 -210.5 L 56 -160 C 66 -183 84 -194 115 -194 Z M 107 -20 C 147 -20 152 -54 152 -95 C 152 -135 147 -170 107 -169 C 65 -169 56 -137 56 -93 C 56 -50 66 -20 107 -20 Z " fill="#333333"/>
<path transform="matrix(.022499999,0,0,.022499999,345.85649,644.76)" d="M 141 -36 C 126 -15 110 5 73 4 C 37 3 15 -17 15 -53 C 14 -117 78 -116 140 -116 C 143 -151 131 -170 99 -170 C 75 -169 58 -163 57 -139 L 24 -142 C 29 -179 57 -194 100 -194 C 145 -194 172 -174 172 -130 L 172 -89 L 172 -48 C 171 -28 179 -16 200 -21 L 200 -11 L 200 -1 C 169 8 139 -3 141 -36 Z M 48 -53 C 48 -33 60 -20 80 -20 C 121 -23 143 -49 140 -94 C 97 -92 48 -99 48 -53 Z " fill="#333333"/>
<path transform="matrix(.022499999,0,0,.022499999,350.35649,644.76)" d="M 115 -194 C 168 -194 184 -155 185 -96 C 185 -30 162 4 115 4 C 84 3 66 -7 56 -30 L 54 0 L 23 0 L 24 -261 L 56 -261 L 56 -210.5 L 56 -160 C 66 -183 84 -194 115 -194 Z M 107 -20 C 147 -20 152 -54 152 -95 C 152 -135 147 -170 107 -169 C 65 -169 56 -137 56 -93 C 56 -50 66 -20 107 -20 Z " fill="#333333"/>
<path transform="matrix(.022499999,0,0,.022499999,354.85649,644.76)" d="M 24 -231 L 24 -246 L 24 -261 L 56 -261 L 56 -246 L 56 -231 L 24 -231 Z M 24 0 L 24 -95 L 24 -190 L 56 -190 L 56 -95 L 56 0 L 24 0 Z " fill="#333333"/>
<path transform="matrix(.022499999,0,0,.022499999,356.63398,644.76)" d="M 24 0 L 24 -130.5 L 24 -261 L 56 -261 L 56 -130.5 L 56 0 L 24 0 Z " fill="#333333"/>
<path transform="matrix(.022499999,0,0,.022499999,358.4115,644.76)" d="M 24 -231 L 24 -246 L 24 -261 L 56 -261 L 56 -246 L 56 -231 L 24 -231 Z M 24 0 L 24 -95 L 24 -190 L 56 -190 L 56 -95 L 56 0 L 24 0 Z " fill="#333333"/>
<path transform="matrix(.022499999,0,0,.022499999,360.189,644.76)" d="M 135 -143 C 132 -177 49 -181 48 -143 C 63 -90 163 -131 167 -53 C 171 25 17 21 10 -45 L 38 -50 C 42 -14 135 -5 136 -50 C 126 -106 23 -65 18 -140 C 14 -197 100 -203 140 -182 C 152 -175 161 -163 164 -147 Z " fill="#333333"/>
<path transform="matrix(.022499999,0,0,.022499999,364.23899,644.76)" d="M 59 -47 C 57 -23 77 -18 97 -25 L 97 -13 L 97 -1 C 64 9 27 4 27 -40 L 27 -103.5 L 27 -167 L 5 -167 L 5 -178.5 L 5 -190 L 29 -190 L 38 -233 L 59 -233 L 59 -211.5 L 59 -190 L 94 -190 L 94 -178.5 L 94 -167 L 59 -167 L 59 -107 L 59 -47 Z " fill="#333333"/>
<path transform="matrix(.022499999,0,0,.022499999,366.48899,644.76)" d="M 24 -231 L 24 -246 L 24 -261 L 56 -261 L 56 -246 L 56 -231 L 24 -231 Z M 24 0 L 24 -95 L 24 -190 L 56 -190 L 56 -95 L 56 0 L 24 0 Z " fill="#333333"/>
<path transform="matrix(.022499999,0,0,.022499999,368.26649,644.76)" d="M 96 -169 C 56 -169 48 -136 48 -96 C 48 -56 57 -21 96 -21 C 120 -21 137 -35 139 -59 L 171 -57 C 165 -20 140 4 97 4 C 38 4 21 -37 15 -95 C 5 -188 116 -226 162 -159 C 166 -152 167 -145 169 -137 L 137 -134 C 133 -155 121 -169 96 -169 Z " fill="#333333"/>
<path transform="matrix(.022499999,0,0,.022499999,372.31648,644.76)" d="" fill="#333333"/>
<path transform="matrix(.022499999,0,0,.022499999,337.725,654.48)" d="M 100 -194 C 162 -195 185 -157 185 -95 C 186 -32 158 4 99 4 C 40 4 16 -35 15 -95 C 15 -161 43 -194 100 -194 Z M 99 -20 C 143 -19 152 -51 152 -95 C 152 -138 144 -170 101 -170 C 58 -170 48 -138 48 -95 C 48 -52 58 -21 99 -20 Z " fill="#333333"/>
<path transform="matrix(.022499999,0,0,.022499999,342.225,654.48)" d="M 84 4 C -5 8 30 -112 23 -190 L 55 -190 L 55 -130 L 55 -70 C 55 -39 62 -20 94 -21 C 166 -23 139 -122 144 -190 L 175 -190 L 176 0 L 146 0 C 145 -10 147 -25 144 -33 C 133 -11 116 3 84 4 Z " fill="#333333"/>
<path transform="matrix(.022499999,0,0,.022499999,346.725,654.48)" d="M 59 -47 C 57 -23 77 -18 97 -25 L 97 -13 L 97 -1 C 64 9 27 4 27 -40 L 27 -103.5 L 27 -167 L 5 -167 L 5 -178.5 L 5 -190 L 29 -190 L 38 -233 L 59 -233 L 59 -211.5 L 59 -190 L 94 -190 L 94 -178.5 L 94 -167 L 59 -167 L 59 -107 L 59 -47 Z " fill="#333333"/>
<path transform="matrix(.022499999,0,0,.022499999,348.975,654.48)" d="M 115 -194 C 170 -193 185 -153 185 -96 C 185 -39 169 2 115 4 C 84 4 66 -9 55 -30 L 56 75 L 24 75 L 23 -190 L 54 -190 L 56 -160 C 66 -181 84 -194 115 -194 Z M 107 -20 C 147 -20 152 -54 152 -95 C 152 -136 146 -168 107 -169 C 65 -169 56 -137 56 -93 C 56 -50 66 -20 107 -20 Z " fill="#333333"/>
<path transform="matrix(.022499999,0,0,.022499999,353.475,654.48)" d="M 84 4 C -5 8 30 -112 23 -190 L 55 -190 L 55 -130 L 55 -70 C 55 -39 62 -20 94 -21 C 166 -23 139 -122 144 -190 L 175 -190 L 176 0 L 146 0 C 145 -10 147 -25 144 -33 C 133 -11 116 3 84 4 Z " fill="#333333"/>
<path transform="matrix(.022499999,0,0,.022499999,357.975,654.48)" d="M 59 -47 C 57 -23 77 -18 97 -25 L 97 -13 L 97 -1 C 64 9 27 4 27 -40 L 27 -103.5 L 27 -167 L 5 -167 L 5 -178.5 L 5 -190 L 29 -190 L 38 -233 L 59 -233 L 59 -211.5 L 59 -190 L 94 -190 L 94 -178.5 L 94 -167 L 59 -167 L 59 -107 L 59 -47 Z " fill="#333333"/>
<path transform="matrix(.022499999,0,0,.022499999,360.225,654.48)" d="M 135 -143 C 132 -177 49 -181 48 -143 C 63 -90 163 -131 167 -53 C 171 25 17 21 10 -45 L 38 -50 C 42 -14 135 -5 136 -50 C 126 -106 23 -65 18 -140 C 14 -197 100 -203 140 -182 C 152 -175 161 -163 164 -147 Z " fill="#333333"/>
</g>
<g id="Layer-1" data-name="Div">
<path transform="matrix(.45,0,0,.45,0,0)" stroke-width="1" stroke-linecap="butt" stroke-miterlimit="4" stroke-linejoin="miter" fill="none" stroke="#333333" d="M 665 1278 L 665 1428 C 665 1434 670.4 1440 677 1440 L 699.1 1440 "/>
<path transform="matrix(.45,0,0,.45,0,0)" d="M 665.5 1278 L 664.5 1278 L 665.5 1278 Z " fill="#333333"/>
<path transform="matrix(.45,0,0,.45,0,0)" d="M 713.9 1440 L 699.6 1444 L 699.6 1435 Z " fill="#333333"/>
<path transform="matrix(.45,0,0,.45,0,0)" stroke-width="1" stroke-linecap="butt" stroke-miterlimit="4" stroke-linejoin="miter" fill="none" stroke="#333333" d="M 713.9 1440 L 699.6 1444 L 699.6 1435 Z "/>
</g>
<g id="Layer-1" data-name="Span">
</g>
<text fill-opacity="0" xml:space="preserve" transform="matrix(0 -.45 .45 0 0 0)" font-size="18" font-family="Helvetica"><tspan y="63.74" x="-630.9 -620.60006 -614.65 -604.65 -600.7 -590.7 -586.75 -576.75">Training</tspan></text>
<g id="Layer-1" data-name="Span">
</g>
<text fill-opacity="0" xml:space="preserve" transform="matrix(0 -.45 .45 0 0 0)" font-size="18" font-family="Helvetica"><tspan y="63.6" x="-1447 -1435 -1429.05 -1419.05 -1409.05 -1405.1001 -1396.1001 -1391.1001 -1387.1502 -1377.1502">Prediction</tspan></text>
<g id="Layer-1" data-name="Span">
</g>
<text fill-opacity="0" xml:space="preserve" transform="matrix(.45 0 -0 .45 0 0)" font-size="35.77" font-family="Helvetica"><tspan y="60.21" x="482.3 515.29 535.16 543.011 562.881 582.751 592.68899 612.55899 632.42898 642.4 662.27 688.01 709.87 719.8 743.64999 763.51998 781.39999 801.26998 830.98 850.85 858.701">Weighted LDA Ensemble</tspan></text>
<g id="Layer-1" data-name="Span">
</g>
<g id="Layer-1" data-name="Span">
</g>
<text fill-opacity="0" xml:space="preserve" transform="matrix(.45 0 -0 .45 0 0)" font-size="18" font-family="Helvetica"><tspan y="310.5" x="220 232 242 251 261 275.95 285.95 289.90003 299.90003">Ensemble </tspan><tspan y="332.1" x="190.6 205.55 215.55 230.5 240.5 250.5 256.45 265.45 270.5 275.5 281.45 291.45 295.40003 305.40003 309.35005 319.35005">members training</tspan></text>
<g id="Layer-1" data-name="Span">
</g>
<g id="Layer-1" data-name="Span">
</g>
<text fill-opacity="0" xml:space="preserve" transform="matrix(.45 0 -0 .45 0 0)" font-size="18" font-family="Helvetica"><tspan y="242.5" x="1131 1141 1153.95 1164.95 1170 1175 1180.95 1190.95 1194.8999 1204.8999 1208.8499 1218.8499 1228.8499">LDA training </tspan><tspan y="264.1" x="1150 1160 1170 1175 1185 1194 1204">dataset</tspan></text>
<g id="Layer-1" data-name="Span">
</g>
<g id="Layer-1" data-name="Span">
</g>
<text fill-opacity="0" xml:space="preserve" transform="matrix(.45 0 -0 .45 0 0)" font-size="18" font-family="Helvetica"><tspan y="332.8" x="855.5 868.45 874.4 884.4 894.4 899.4 909.4">Create </tspan><tspan y="354.4" x="839 849 854.95 864.95 874.95 878.9 887.9 892.9 896.85006 906.85006 916.85006">predictions</tspan></text>
<g id="Layer-1" data-name="Span">
</g>
<g id="Layer-1" data-name="Span">
</g>
<text fill-opacity="0" xml:space="preserve" transform="matrix(.45 0 -0 .45 0 0)" font-size="18" font-family="Helvetica"><tspan y="512.8" x="864.5 869.5 873.45 878.45 884.4 890.35006 895.4 900.4">fit() / </tspan><tspan y="534.4" x="818.1 823.1 827.05 832.05 842.05 852.05 862.05 872.05 882.05 886 891 894.95 909.9 919.9 924.9 934.9 940.85006">fit_penultimate()</tspan></text>
<g id="Layer-1" data-name="Span">
</g>
<text fill-opacity="0" xml:space="preserve" transform="matrix(.45 0 -0 .45 0 0)" font-size="18" font-family="Helvetica"><tspan y="464.3" x="1150 1158.95 1168.95 1174.8999 1184.8999 1194.8999 1199.8999">Targets</tspan></text>
<g id="Layer-1" data-name="Span">
</g>
<text fill-opacity="0" xml:space="preserve" transform="matrix(.45 0 -0 .45 0 0)" font-size="18" font-family="Helvetica"><tspan y="703.6" x="834 844 856.95 867.95 873 887.95 897.95 907.95 917.95 921.9">LDA models</tspan></text>
<g id="Layer-1" data-name="Span">
</g>
<g id="Layer-1" data-name="Span">
</g>
<text fill-opacity="0" xml:space="preserve" transform="matrix(.45 0 -0 .45 0 0)" font-size="18" font-family="Helvetica"><tspan y="310.5" x="530.1 543.05 556 561 566.95 571.9 581.9 591.9 600.9 610.9 625.85006 635.85006 639.80007 649.80007">NN - ensemble </tspan><tspan y="332.1" x="542 551 561 571 580 585 588.95 593.95 603.95 613.95 623.95 628.95">constituents</tspan></text>
<g id="Layer-1" data-name="Span">
</g>
<text fill-opacity="0" xml:space="preserve" transform="matrix(.45 0 -0 .45 0 0)" font-size="18" font-family="Helvetica"><tspan y="883.6" x="818.1 830.1 840.1 849.1 859.1 874.05 884.05 888 898 903 917.95 927.95 937.95 947.95">Ensemble model</tspan></text>
<g id="Layer-1" data-name="Span">
</g>
<text fill-opacity="0" xml:space="preserve" transform="matrix(.45 0 -0 .45 0 0)" font-size="18" font-family="Helvetica"><tspan y="1195" x="969 981.95 991.95 996.95 1006.95 1015.95 1025.95">Dataset</tspan></text>
<g id="Layer-1" data-name="Span">
</g>
<text fill-opacity="0" xml:space="preserve" transform="matrix(.45 0 -0 .45 0 0)" font-size="18" font-family="Helvetica"><tspan y="1221" x="571.6 581.6 587.55 597.55 607.55 611.5 620.5 625.5 635.5 645.5 651.45 661.45 671.45 681.45 691.45 696.45 706.45 716.45 720.4 730.4 735.4 745.4 754.4">predict_proba_topl_fast</tspan></text>
<g id="Layer-1" data-name="Span">
</g>
<g id="Layer-1" data-name="Span">
</g>
<text fill-opacity="0" xml:space="preserve" transform="matrix(.45 0 -0 .45 0 0)" font-size="18" font-family="Helvetica"><tspan y="202.5" x="375.1 388.05003 401.00004 406 411 416.95 426.95 430.90003 440.90003 444.85005 454.85005 464.85005">NN training </tspan><tspan y="224.1" x="390.5 400.5 410.5 415.5 425.5 434.5 444.5">dataset</tspan></text>
<g id="Layer-1" data-name="Span">
</g>
<g id="Layer-1" data-name="Span">
</g>
<text fill-opacity="0" xml:space="preserve" transform="matrix(.45 0 -0 .45 0 0)" font-size="18" font-family="Helvetica"><tspan y="1432" x="732.6 742.6 748.55 758.55 768.55 778.55 788.55 792.5 796.45 800.4 809.4 814.4 818.35006 827.35006">probabilistic </tspan><tspan y="1454" x="750.5 760.5 770.5 775.5 785.5 795.5 800.5">outputs</tspan></text>
</g>
</svg>
