<svg xmlns="http://www.w3.org/2000/svg" xmlns:xlink="http://www.w3.org/1999/xlink" xmlns:lucid="lucid" width="1221" height="1541"><g transform="translate(-53 0)" lucid:page-tab-id="0_0"><path d="M0 0h1360v1760H0z" fill="#fff"/><path d="M100 940V91.06c0-4.4 3.58-8 8-8h52V940zM160 1479.22h-52c-4.42 0-8-3.58-8-8V940h60z" stroke="#333" fill="#fff"/><path d="M160 83.06h1052c4.42 0 8 3.6 8 8V940H160zM1220 940v531.22c0 4.42-3.58 8-8 8H160V940z" stroke="#333" fill="none"/><use xlink:href="#a" transform="matrix(-1.8369701987210297e-16,-1,1,-1.8369701987210297e-16,100.00000000000006,940.0000000000001) translate(396.425 33.6)"/><use xlink:href="#b" transform="matrix(-1.8369701987210297e-16,-1,1,-1.8369701987210297e-16,99.99999999999977,1479.2179800857762) translate(230.075 33.6)"/><path d="M400 23.06h560v60H400z" fill="none"/><use xlink:href="#c" transform="matrix(1,0,0,1,400,23.063976823002463) translate(82.33086419753096 37.15555555555555)"/><use xlink:href="#d" transform="matrix(1,0,0,1,400,23.063976823002463) translate(242.43641975308645 37.15555555555555)"/><use xlink:href="#e" transform="matrix(1,0,0,1,400,23.063976823002463) translate(319.85555555555555 37.15555555555555)"/><path d="M248.24 267.84c2.07-3.9 7.34-7.06 11.76-7.06h80c4.42 0 9.7 3.16 11.76 7.06l24.48 45.88c2.07 3.9 2.07 10.22 0 14.12l-24.48 45.88c-2.07 3.9-7.34 7.06-11.76 7.06h-80c-4.42 0-9.7-3.16-11.76-7.06l-24.48-45.88c-2.07-3.9-2.07-10.22 0-14.12z" stroke="#333" fill="#fff"/><use xlink:href="#f" transform="matrix(1,0,0,1,225,265.7820199142436) translate(35.05 47.8)"/><use xlink:href="#g" transform="matrix(1,0,0,1,225,265.7820199142436) translate(5.6499999999999915 69.4)"/><use xlink:href="#h" transform="matrix(1,0,0,1,225,265.7820199142436) translate(85.5 69.4)"/><path d="M1155 248.78c0 6.63-33.58 12-75 12s-75-5.37-75-12v-96c0-6.63 33.58-12 75-12s75 5.37 75 12z" stroke="#333" fill="#99d2f2"/><path d="M1155 152.78c0 6.63-33.58 12-75 12s-75-5.37-75-12" stroke="#333" fill="none"/><use xlink:href="#i" transform="matrix(1,0,0,1,1010,169.78201991424362) translate(21.099999999999994 35.8)"/><use xlink:href="#j" transform="matrix(1,0,0,1,1010,169.78201991424362) translate(60.05 35.8)"/><use xlink:href="#k" transform="matrix(1,0,0,1,1010,169.78201991424362) translate(40.5 57.4)"/><path d="M702.5 251.06c0-4.4 3.58-8 8-8h144c4.42 0 8 3.6 8 8v104c0 4.42-3.58 8-8 8h-144c-4.42 0-8-3.58-8-8z" stroke="#333" fill="#fff"/><use xlink:href="#l" transform="matrix(1,0,0,1,714.5000000013372,255.06397682300235) translate(41.05 40.8)"/><use xlink:href="#m" transform="matrix(1,0,0,1,714.5000000013372,255.06397682300235) translate(24.574999999999996 62.4)"/><path d="M1016.1 200.78h-64.3c-6.62 0-12 5.37-12 12v78.28c0 6.63-5.37 12-12 12H879.4M1016.1 200.78h3.5" stroke="#333" fill="none"/><path d="M864.62 303.06l14.26-4.63v9.27z" stroke="#333" fill="#333"/><path d="M672.5 431.06c0-4.4 3.58-8 8-8h204c4.42 0 8 3.6 8 8v104c0 4.42-3.58 8-8 8h-204c-4.42 0-8-3.58-8-8z" stroke="#333" fill="#c7e8ac"/><path d="M694.5 423.06v120m176-120v120" stroke="#333" fill="none"/><use xlink:href="#n" transform="matrix(1,0,0,1,705.0000000013372,428.0639768230024) translate(59.575 47.8)"/><use xlink:href="#o" transform="matrix(1,0,0,1,705.0000000013372,428.0639768230024) translate(90.425 47.8)"/><use xlink:href="#p" transform="matrix(1,0,0,1,705.0000000013372,428.0639768230024) translate(13.149999999999991 69.4)"/><path d="M782.4 364.06v28.96c0 .02.02.04.05.04.03 0 .05.03.05.05v13.08" stroke="#333" fill="none"/><path d="M782.9 364.08h-1v-.52h1" fill="#333"/><path d="M782.5 420.95l-4.64-14.27h9.28z" stroke="#333" fill="#333"/><path d="M1080.5 471.1l-.42 3.2-1.24 3-2 2.6-2.6 2-3 1.24-3.2.42H909.37v-1h158.6l3-.4 2.76-1.13 2.4-1.84 1.82-2.4 1.14-2.75.4-3.02v-36.4h1m0-21.6h-1V261.8h1M1080 261.28h.5v.5h-1v-.5M908.88 487.7l-14.26-4.64 14.26-4.63z" fill="#333"/><path d="M909.38 488.4L893 483.05l16.38-5.32m-13.14 5.32l12.14 3.95v-7.88" fill="#333"/><use xlink:href="#q" transform="matrix(1,0,0,1,1050.55,413.03900563064275) translate(0.004999999999999005 14.4)"/><path d="M732.44 610.8c1.14-4.28 5.64-7.74 10.06-7.74h112c4.42 0 7.08 3.46 5.94 7.73l-27.88 104.53c-1.14 4.27-5.64 7.73-10.06 7.73h-112c-4.42 0-7.08-3.46-5.94-7.73z" stroke="#333" fill="#ffeca9"/><use xlink:href="#i" transform="matrix(1,0,0,1,707.5000000013372,608.0639768230022) translate(26.574999999999996 58.6)"/><use xlink:href="#r" transform="matrix(1,0,0,1,707.5000000013372,608.0639768230022) translate(65.525 58.6)"/><path d="M782.5 544.06v42.12" stroke="#333" fill="none"/><path d="M783 544.08h-1v-.52h1" fill="#333"/><path d="M782.5 600.95l-4.64-14.27h9.28z" stroke="#333" fill="#333"/><path d="M489.94 250.8c1.14-4.28 5.64-7.74 10.06-7.74h132c4.42 0 7.08 3.46 5.94 7.73l-27.88 104.53c-1.14 4.27-5.64 7.73-10.06 7.73H468c-4.42 0-7.08-3.46-5.94-7.73z" stroke="#333" fill="#ffeca9"/><use xlink:href="#s" transform="matrix(1,0,0,1,465,248.06397682300235) translate(25.125 47.8)"/><use xlink:href="#t" transform="matrix(1,0,0,1,465,248.06397682300235) translate(56.025000000000006 47.8)"/><use xlink:href="#u" transform="matrix(1,0,0,1,465,248.06397682300235) translate(66.975 47.8)"/><use xlink:href="#v" transform="matrix(1,0,0,1,465,248.06397682300235) translate(37.025 69.4)"/><path d="M378.73 320.78H418c4.9 0 8.85-3.96 8.85-8.86 0-4.9 3.97-8.86 8.86-8.86h23.4" stroke="#333" fill="none"/><path d="M378.74 321.28h-.47l-.1-1h.57" fill="#333"/><path d="M473.86 303.06l-14.26 4.64v-9.27z" stroke="#333" fill="#333"/><path d="M625.02 303.06h60.6" stroke="#333" fill="none"/><path d="M625.03 303.56h-.65l.27-1h.38" fill="#333"/><path d="M700.38 303.06l-14.26 4.64v-9.27z" stroke="#333" fill="#333"/><path d="M724.94 790.8c1.14-4.28 5.64-7.74 10.06-7.74h132c4.42 0 7.08 3.46 5.94 7.73l-27.88 104.53c-1.14 4.27-5.64 7.73-10.06 7.73H703c-4.42 0-7.08-3.46-5.94-7.73z" stroke="#333" fill="#ffeca9"/><use xlink:href="#w" transform="matrix(1,0,0,1,700.0000000033432,788.0639768230022) translate(18.099999999999994 58.6)"/><use xlink:href="#x" transform="matrix(1,0,0,1,700.0000000033432,788.0639768230022) translate(103 58.6)"/><path d="M782.5 724.06v42.12" stroke="#333" fill="none"/><path d="M783 724.08h-1v-.52h1" fill="#333"/><path d="M782.5 780.94l-4.64-14.26h9.28z" stroke="#333" fill="#333"/><path d="M550 364.06v467c0 6.63 5.37 12 12 12h132.1" stroke="#333" fill="none"/><path d="M550.5 364.08h-1v-.52h1" fill="#333"/><path d="M708.86 843.06l-14.26 4.64v-9.27z" stroke="#333" fill="#333"/><path d="M1155 1230.28c0 6.63-26.86 12-60 12s-60-5.37-60-12v-96c0-6.63 26.86-12 60-12s60 5.37 60 12z" stroke="#333" fill="#99d2f2"/><path d="M1155 1134.28c0 6.63-26.86 12-60 12s-60-5.37-60-12" stroke="#333" fill="none"/><use xlink:href="#y" transform="matrix(1,0,0,1,1040,1151.2819569087787) translate(24.025 46.6)"/><path d="M400 1130.28c0-4.42 3.58-8 8-8h294c4.42 0 8 3.58 8 8v104c0 4.42-3.58 8-8 8H408c-4.42 0-8-3.58-8-8z" stroke="#333" fill="#c7e8ac"/><path d="M431 1122.28v120m248-120v120" stroke="#333" fill="none"/><use xlink:href="#z" transform="matrix(1,0,0,1,443.74999999999994,1127.2819569087787) translate(48.12499999999999 47.8)"/><use xlink:href="#A" transform="matrix(1,0,0,1,443.74999999999994,1127.2819569087787) translate(11.650000000000006 69.4)"/><path d="M787.5 904.06v96.6c0 6.64-5.37 12-12 12H567c-6.63 0-12 5.4-12 12v80.74" stroke="#333" fill="none"/><path d="M788 904.08h-1v-.52h1" fill="#333"/><path d="M555 1120.16l-4.64-14.26h9.28z" stroke="#333" fill="#333"/><path d="M360 201.45c0 6.63-26.86 12-60 12s-60-5.37-60-12v-96c0-6.62 26.86-12 60-12s60 5.38 60 12z" stroke="#333" fill="#99d2f2"/><path d="M360 105.45c0 6.63-26.86 12-60 12s-60-5.37-60-12" stroke="#333" fill="none"/><use xlink:href="#s" transform="matrix(1,0,0,1,245,122.45498678012422) translate(10.125 35.8)"/><use xlink:href="#j" transform="matrix(1,0,0,1,245,122.45498678012422) translate(41.025000000000006 35.8)"/><use xlink:href="#k" transform="matrix(1,0,0,1,245,122.45498678012422) translate(25.5 57.4)"/><path d="M529.94 1330c1.14-4.26 5.64-7.72 10.06-7.72h112c4.42 0 7.08 3.46 5.94 7.73l-27.88 104.55c-1.14 4.27-5.64 7.73-10.06 7.73H508c-4.42 0-7.08-3.46-5.94-7.73z" stroke="#333" fill="#ffc374"/><use xlink:href="#B" transform="matrix(1,0,0,1,505,1327.2819569087787) translate(27.624999999999993 47.8)"/><use xlink:href="#C" transform="matrix(1,0,0,1,505,1327.2819569087787) translate(45.5 69.4)"/><path d="M929.94 970c1.14-4.26 5.64-7.72 10.06-7.72h132c4.42 0 7.08 3.46 5.94 7.73l-27.88 104.55c-1.14 4.27-5.64 7.73-10.06 7.73H908c-4.42 0-7.08-3.46-5.94-7.73z" stroke="#333" fill="#ffeca9"/><use xlink:href="#s" transform="matrix(1,0,0,1,905,967.2819569087787) translate(25.125 47.8)"/><use xlink:href="#t" transform="matrix(1,0,0,1,905,967.2819569087787) translate(56.025000000000006 47.8)"/><use xlink:href="#u" transform="matrix(1,0,0,1,905,967.2819569087787) translate(66.975 47.8)"/><use xlink:href="#v" transform="matrix(1,0,0,1,905,967.2819569087787) translate(37.025 69.4)"/><path d="M860.02 843.06H978c6.63 0 12 5.38 12 12v90.34" stroke="#333" fill="none"/><path d="M860.03 843.56h-.65l.27-1h.38" fill="#333"/><path d="M990 960.16l-4.64-14.26h9.28z" stroke="#333" fill="#333"/><path d="M780 1130.28c0-4.42 3.58-8 8-8h144c4.42 0 8 3.58 8 8v104c0 4.42-3.58 8-8 8H788c-4.42 0-8-3.58-8-8z" stroke="#333" fill="#fff"/><g><use xlink:href="#D" transform="matrix(1,0,0,1,792.0000000000001,1134.2819569087787) translate(41.05 40.8)"/><use xlink:href="#E" transform="matrix(1,0,0,1,792.0000000000001,1134.2819569087787) translate(24.574999999999996 62.4)"/></g><path d="M990 1083.28v7c0 6.63-5.37 12-12 12H863.12c-1.72 0-3.12 1.4-3.12 3.12" stroke="#333" fill="none"/><path d="M990.5 1083.3h-1v-.52h1" fill="#333"/><path d="M860 1120.16l-4.64-14.26h9.28z" stroke="#333" fill="#333"/><path d="M1034 1182.28h-77.12" stroke="#333" fill="none"/><path d="M1034.5 1182.78h-.5v-1h.5" fill="#333"/><path d="M942.12 1182.28l14.26-4.63v9.27z" stroke="#333" fill="#333"/><path d="M779 1182.28h-52.12" stroke="#333" fill="none"/><path d="M779.5 1182.78h-.5v-1h.5" fill="#333"/><path d="M712.12 1182.28l14.26-4.63v9.27z" stroke="#333" fill="#333"/><path d="M555 1243.28v27c0 6.63 5.37 12 12 12h1c6.63 0 12 5.37 12 12v11.12" stroke="#333" fill="none"/><path d="M555.5 1243.3h-1v-.52h1" fill="#333"/><path d="M580 1320.16l-4.64-14.26h9.28z" stroke="#333" fill="#333"/><path d="M300 214.46v29.44" stroke="#333" fill="none"/><path d="M300 213.96l.5-.02v.53h-1v-.53" fill="#333"/><path d="M300 258.66l-4.64-14.26h9.28z" stroke="#333" fill="#333"/><defs><path fill="#333" d="M127-220V0H93v-220H8v-28h204v28h-85" id="F"/><path fill="#333" d="M114-163C36-179 61-72 57 0H25l-1-190h30c1 12-1 29 2 39 6-27 23-49 58-41v29" id="G"/><path fill="#333" d="M141-36C126-15 110 5 73 4 37 3 15-17 15-53c-1-64 63-63 125-63 3-35-9-54-41-54-24 1-41 7-42 31l-33-3c5-37 33-52 76-52 45 0 72 20 72 64v82c-1 20 7 32 28 27v20c-31 9-61-2-59-35zM48-53c0 20 12 33 32 33 41-3 63-29 60-74-43 2-92-5-92 41" id="H"/><path fill="#333" d="M24-231v-30h32v30H24zM24 0v-190h32V0H24" id="I"/><path fill="#333" d="M117-194c89-4 53 116 60 194h-32v-121c0-31-8-49-39-48C34-167 62-67 57 0H25l-1-190h30c1 10-1 24 2 32 11-22 29-35 61-36" id="J"/><path fill="#333" d="M177-190C167-65 218 103 67 71c-23-6-38-20-44-43l32-5c15 47 100 32 89-28v-30C133-14 115 1 83 1 29 1 15-40 15-95c0-56 16-97 71-98 29-1 48 16 59 35 1-10 0-23 2-32h30zM94-22c36 0 50-32 50-73 0-42-14-75-50-75-39 0-46 34-46 75s6 73 46 73" id="K"/><g id="a"><use transform="matrix(0.05,0,0,0.05,0,0)" xlink:href="#F"/><use transform="matrix(0.05,0,0,0.05,10.3,0)" xlink:href="#G"/><use transform="matrix(0.05,0,0,0.05,16.25,0)" xlink:href="#H"/><use transform="matrix(0.05,0,0,0.05,26.25,0)" xlink:href="#I"/><use transform="matrix(0.05,0,0,0.05,30.200000000000003,0)" xlink:href="#J"/><use transform="matrix(0.05,0,0,0.05,40.2,0)" xlink:href="#I"/><use transform="matrix(0.05,0,0,0.05,44.150000000000006,0)" xlink:href="#J"/><use transform="matrix(0.05,0,0,0.05,54.150000000000006,0)" xlink:href="#K"/></g><path fill="#333" d="M30-248c87 1 191-15 191 75 0 78-77 80-158 76V0H30v-248zm33 125c57 0 124 11 124-50 0-59-68-47-124-48v98" id="L"/><path fill="#333" d="M100-194c63 0 86 42 84 106H49c0 40 14 67 53 68 26 1 43-12 49-29l28 8c-11 28-37 45-77 45C44 4 14-33 15-96c1-61 26-98 85-98zm52 81c6-60-76-77-97-28-3 7-6 17-6 28h103" id="M"/><path fill="#333" d="M85-194c31 0 48 13 60 33l-1-100h32l1 261h-30c-2-10 0-23-3-31C134-8 116 4 85 4 32 4 16-35 15-94c0-66 23-100 70-100zm9 24c-40 0-46 34-46 75 0 40 6 74 45 74 42 0 51-32 51-76 0-42-9-74-50-73" id="N"/><path fill="#333" d="M96-169c-40 0-48 33-48 73s9 75 48 75c24 0 41-14 43-38l32 2c-6 37-31 61-74 61-59 0-76-41-82-99-10-93 101-131 147-64 4 7 5 14 7 22l-32 3c-4-21-16-35-41-35" id="O"/><path fill="#333" d="M59-47c-2 24 18 29 38 22v24C64 9 27 4 27-40v-127H5v-23h24l9-43h21v43h35v23H59v120" id="P"/><path fill="#333" d="M100-194c62-1 85 37 85 99 1 63-27 99-86 99S16-35 15-95c0-66 28-99 85-99zM99-20c44 1 53-31 53-75 0-43-8-75-51-75s-53 32-53 75 10 74 51 75" id="Q"/><g id="b"><use transform="matrix(0.05,0,0,0.05,0,0)" xlink:href="#L"/><use transform="matrix(0.05,0,0,0.05,12,0)" xlink:href="#G"/><use transform="matrix(0.05,0,0,0.05,17.95,0)" xlink:href="#M"/><use transform="matrix(0.05,0,0,0.05,27.950000000000003,0)" xlink:href="#N"/><use transform="matrix(0.05,0,0,0.05,37.95,0)" xlink:href="#I"/><use transform="matrix(0.05,0,0,0.05,41.900000000000006,0)" xlink:href="#O"/><use transform="matrix(0.05,0,0,0.05,50.900000000000006,0)" xlink:href="#P"/><use transform="matrix(0.05,0,0,0.05,55.900000000000006,0)" xlink:href="#I"/><use transform="matrix(0.05,0,0,0.05,59.85,0)" xlink:href="#Q"/><use transform="matrix(0.05,0,0,0.05,69.85000000000001,0)" xlink:href="#J"/></g><path fill="#333" d="M266 0h-40l-56-210L115 0H75L2-248h35L96-30l15-64 43-154h32l59 218 59-218h35" id="R"/><path fill="#333" d="M106-169C34-169 62-67 57 0H25v-261h32l-1 103c12-21 28-36 61-36 89 0 53 116 60 194h-32v-121c2-32-8-49-39-48" id="S"/><g id="c"><use transform="matrix(0.09938271604938267,0,0,0.09938271604938267,0,0)" xlink:href="#R"/><use transform="matrix(0.09938271604938267,0,0,0.09938271604938267,32.99506172839505,0)" xlink:href="#M"/><use transform="matrix(0.09938271604938267,0,0,0.09938271604938267,52.87160493827158,0)" xlink:href="#I"/><use transform="matrix(0.09938271604938267,0,0,0.09938271604938267,60.72283950617281,0)" xlink:href="#K"/><use transform="matrix(0.09938271604938267,0,0,0.09938271604938267,80.59938271604935,0)" xlink:href="#S"/><use transform="matrix(0.09938271604938267,0,0,0.09938271604938267,100.47592592592588,0)" xlink:href="#P"/><use transform="matrix(0.09938271604938267,0,0,0.09938271604938267,110.41419753086416,0)" xlink:href="#M"/><use transform="matrix(0.09938271604938267,0,0,0.09938271604938267,130.2907407407407,0)" xlink:href="#N"/></g><path fill="#333" d="M30 0v-248h33v221h125V0H30" id="T"/><path fill="#333" d="M30-248c118-7 216 8 213 122C240-48 200 0 122 0H30v-248zM63-27c89 8 146-16 146-99s-60-101-146-95v194" id="U"/><path fill="#333" d="M205 0l-28-72H64L36 0H1l101-248h38L239 0h-34zm-38-99l-47-123c-12 45-31 82-46 123h93" id="V"/><g id="d"><use transform="matrix(0.09938271604938267,0,0,0.09938271604938267,0,0)" xlink:href="#T"/><use transform="matrix(0.09938271604938267,0,0,0.09938271604938267,19.876543209876534,0)" xlink:href="#U"/><use transform="matrix(0.09938271604938267,0,0,0.09938271604938267,45.616666666666646,0)" xlink:href="#V"/></g><path fill="#333" d="M30 0v-248h187v28H63v79h144v27H63v87h162V0H30" id="W"/><path fill="#333" d="M135-143c-3-34-86-38-87 0 15 53 115 12 119 90S17 21 10-45l28-5c4 36 97 45 98 0-10-56-113-15-118-90-4-57 82-63 122-42 12 7 21 19 24 35" id="X"/><path fill="#333" d="M210-169c-67 3-38 105-44 169h-31v-121c0-29-5-50-35-48C34-165 62-65 56 0H25l-1-190h30c1 10-1 24 2 32 10-44 99-50 107 0 11-21 27-35 58-36 85-2 47 119 55 194h-31v-121c0-29-5-49-35-48" id="Y"/><path fill="#333" d="M115-194c53 0 69 39 70 98 0 66-23 100-70 100C84 3 66-7 56-30L54 0H23l1-261h32v101c10-23 28-34 59-34zm-8 174c40 0 45-34 45-75 0-40-5-75-45-74-42 0-51 32-51 76 0 43 10 73 51 73" id="Z"/><path fill="#333" d="M24 0v-261h32V0H24" id="aa"/><g id="e"><use transform="matrix(0.09938271604938267,0,0,0.09938271604938267,0,0)" xlink:href="#W"/><use transform="matrix(0.09938271604938267,0,0,0.09938271604938267,23.85185185185184,0)" xlink:href="#J"/><use transform="matrix(0.09938271604938267,0,0,0.09938271604938267,43.72839506172838,0)" xlink:href="#X"/><use transform="matrix(0.09938271604938267,0,0,0.09938271604938267,61.61728395061726,0)" xlink:href="#M"/><use transform="matrix(0.09938271604938267,0,0,0.09938271604938267,81.4938271604938,0)" xlink:href="#Y"/><use transform="matrix(0.09938271604938267,0,0,0.09938271604938267,111.20925925925921,0)" xlink:href="#Z"/><use transform="matrix(0.09938271604938267,0,0,0.09938271604938267,131.08580246913576,0)" xlink:href="#aa"/><use transform="matrix(0.09938271604938267,0,0,0.09938271604938267,138.937037037037,0)" xlink:href="#M"/></g><g id="f"><use transform="matrix(0.05,0,0,0.05,0,0)" xlink:href="#W"/><use transform="matrix(0.05,0,0,0.05,12,0)" xlink:href="#J"/><use transform="matrix(0.05,0,0,0.05,22,0)" xlink:href="#X"/><use transform="matrix(0.05,0,0,0.05,31,0)" xlink:href="#M"/><use transform="matrix(0.05,0,0,0.05,41,0)" xlink:href="#Y"/><use transform="matrix(0.05,0,0,0.05,55.95,0)" xlink:href="#Z"/><use transform="matrix(0.05,0,0,0.05,65.95,0)" xlink:href="#aa"/><use transform="matrix(0.05,0,0,0.05,69.9,0)" xlink:href="#M"/></g><g id="g"><use transform="matrix(0.05,0,0,0.05,0,0)" xlink:href="#Y"/><use transform="matrix(0.05,0,0,0.05,14.950000000000001,0)" xlink:href="#M"/><use transform="matrix(0.05,0,0,0.05,24.950000000000003,0)" xlink:href="#Y"/><use transform="matrix(0.05,0,0,0.05,39.900000000000006,0)" xlink:href="#Z"/><use transform="matrix(0.05,0,0,0.05,49.900000000000006,0)" xlink:href="#M"/><use transform="matrix(0.05,0,0,0.05,59.900000000000006,0)" xlink:href="#G"/><use transform="matrix(0.05,0,0,0.05,65.85000000000001,0)" xlink:href="#X"/></g><g id="h"><use transform="matrix(0.05,0,0,0.05,0,0)" xlink:href="#P"/><use transform="matrix(0.05,0,0,0.05,5,0)" xlink:href="#G"/><use transform="matrix(0.05,0,0,0.05,10.95,0)" xlink:href="#H"/><use transform="matrix(0.05,0,0,0.05,20.95,0)" xlink:href="#I"/><use transform="matrix(0.05,0,0,0.05,24.9,0)" xlink:href="#J"/><use transform="matrix(0.05,0,0,0.05,34.9,0)" xlink:href="#I"/><use transform="matrix(0.05,0,0,0.05,38.85,0)" xlink:href="#J"/><use transform="matrix(0.05,0,0,0.05,48.85,0)" xlink:href="#K"/></g><g id="i"><use transform="matrix(0.05,0,0,0.05,0,0)" xlink:href="#T"/><use transform="matrix(0.05,0,0,0.05,10,0)" xlink:href="#U"/><use transform="matrix(0.05,0,0,0.05,22.950000000000003,0)" xlink:href="#V"/></g><g id="j"><use transform="matrix(0.05,0,0,0.05,0,0)" xlink:href="#P"/><use transform="matrix(0.05,0,0,0.05,5,0)" xlink:href="#G"/><use transform="matrix(0.05,0,0,0.05,10.95,0)" xlink:href="#H"/><use transform="matrix(0.05,0,0,0.05,20.95,0)" xlink:href="#I"/><use transform="matrix(0.05,0,0,0.05,24.9,0)" xlink:href="#J"/><use transform="matrix(0.05,0,0,0.05,34.9,0)" xlink:href="#I"/><use transform="matrix(0.05,0,0,0.05,38.85,0)" xlink:href="#J"/><use transform="matrix(0.05,0,0,0.05,48.85,0)" xlink:href="#K"/></g><g id="k"><use transform="matrix(0.05,0,0,0.05,0,0)" xlink:href="#N"/><use transform="matrix(0.05,0,0,0.05,10,0)" xlink:href="#H"/><use transform="matrix(0.05,0,0,0.05,20,0)" xlink:href="#P"/><use transform="matrix(0.05,0,0,0.05,25,0)" xlink:href="#H"/><use transform="matrix(0.05,0,0,0.05,35,0)" xlink:href="#X"/><use transform="matrix(0.05,0,0,0.05,44,0)" xlink:href="#M"/><use transform="matrix(0.05,0,0,0.05,54,0)" xlink:href="#P"/></g><path fill="#333" d="M212-179c-10-28-35-45-73-45-59 0-87 40-87 99 0 60 29 101 89 101 43 0 62-24 78-52l27 14C228-24 195 4 139 4 59 4 22-46 18-125c-6-104 99-153 187-111 19 9 31 26 39 46" id="ab"/><g id="l"><use transform="matrix(0.05,0,0,0.05,0,0)" xlink:href="#ab"/><use transform="matrix(0.05,0,0,0.05,12.950000000000001,0)" xlink:href="#G"/><use transform="matrix(0.05,0,0,0.05,18.900000000000002,0)" xlink:href="#M"/><use transform="matrix(0.05,0,0,0.05,28.900000000000002,0)" xlink:href="#H"/><use transform="matrix(0.05,0,0,0.05,38.900000000000006,0)" xlink:href="#P"/><use transform="matrix(0.05,0,0,0.05,43.900000000000006,0)" xlink:href="#M"/></g><path fill="#333" d="M115-194c55 1 70 41 70 98S169 2 115 4C84 4 66-9 55-30l1 105H24l-1-265h31l2 30c10-21 28-34 59-34zm-8 174c40 0 45-34 45-75s-6-73-45-74c-42 0-51 32-51 76 0 43 10 73 51 73" id="ac"/><g id="m"><use transform="matrix(0.05,0,0,0.05,0,0)" xlink:href="#ac"/><use transform="matrix(0.05,0,0,0.05,10,0)" xlink:href="#G"/><use transform="matrix(0.05,0,0,0.05,15.949999999999998,0)" xlink:href="#M"/><use transform="matrix(0.05,0,0,0.05,25.950000000000003,0)" xlink:href="#N"/><use transform="matrix(0.05,0,0,0.05,35.95,0)" xlink:href="#I"/><use transform="matrix(0.05,0,0,0.05,39.900000000000006,0)" xlink:href="#O"/><use transform="matrix(0.05,0,0,0.05,48.900000000000006,0)" xlink:href="#P"/><use transform="matrix(0.05,0,0,0.05,53.900000000000006,0)" xlink:href="#I"/><use transform="matrix(0.05,0,0,0.05,57.85,0)" xlink:href="#Q"/><use transform="matrix(0.05,0,0,0.05,67.85000000000001,0)" xlink:href="#J"/><use transform="matrix(0.05,0,0,0.05,77.85000000000001,0)" xlink:href="#X"/></g><path fill="#333" d="M101-234c-31-9-42 10-38 44h38v23H63V0H32v-167H5v-23h27c-7-52 17-82 69-68v24" id="ad"/><path fill="#333" d="M87 75C49 33 22-17 22-94c0-76 28-126 65-167h31c-38 41-64 92-64 168S80 34 118 75H87" id="ae"/><path fill="#333" d="M33-261c38 41 65 92 65 168S71 34 33 75H2C39 34 66-17 66-93S39-220 2-261h31" id="af"/><g id="n"><use transform="matrix(0.05,0,0,0.05,0,0)" xlink:href="#ad"/><use transform="matrix(0.05,0,0,0.05,5,0)" xlink:href="#I"/><use transform="matrix(0.05,0,0,0.05,8.95,0)" xlink:href="#P"/><use transform="matrix(0.05,0,0,0.05,13.949999999999998,0)" xlink:href="#ae"/><use transform="matrix(0.05,0,0,0.05,19.9,0)" xlink:href="#af"/></g><path fill="#333" d="M0 4l72-265h28L28 4H0" id="ag"/><use transform="matrix(0.05,0,0,0.05,0,0)" xlink:href="#ag" id="o"/><path fill="#333" d="M-5 72V49h209v23H-5" id="ah"/><path fill="#333" d="M84 4C-5 8 30-112 23-190h32v120c0 31 7 50 39 49 72-2 45-101 50-169h31l1 190h-30c-1-10 1-25-2-33-11 22-28 36-60 37" id="ai"/><g id="p"><use transform="matrix(0.05,0,0,0.05,0,0)" xlink:href="#ad"/><use transform="matrix(0.05,0,0,0.05,5,0)" xlink:href="#I"/><use transform="matrix(0.05,0,0,0.05,8.95,0)" xlink:href="#P"/><use transform="matrix(0.05,0,0,0.05,13.949999999999998,0)" xlink:href="#ah"/><use transform="matrix(0.05,0,0,0.05,23.95,0)" xlink:href="#ac"/><use transform="matrix(0.05,0,0,0.05,33.95,0)" xlink:href="#M"/><use transform="matrix(0.05,0,0,0.05,43.95,0)" xlink:href="#J"/><use transform="matrix(0.05,0,0,0.05,53.95,0)" xlink:href="#ai"/><use transform="matrix(0.05,0,0,0.05,63.95,0)" xlink:href="#aa"/><use transform="matrix(0.05,0,0,0.05,67.9,0)" xlink:href="#P"/><use transform="matrix(0.05,0,0,0.05,72.9,0)" xlink:href="#I"/><use transform="matrix(0.05,0,0,0.05,76.85000000000001,0)" xlink:href="#Y"/><use transform="matrix(0.05,0,0,0.05,91.80000000000001,0)" xlink:href="#H"/><use transform="matrix(0.05,0,0,0.05,101.80000000000001,0)" xlink:href="#P"/><use transform="matrix(0.05,0,0,0.05,106.80000000000001,0)" xlink:href="#M"/><use transform="matrix(0.05,0,0,0.05,116.80000000000001,0)" xlink:href="#ae"/><use transform="matrix(0.05,0,0,0.05,122.75,0)" xlink:href="#af"/></g><g id="q"><use transform="matrix(0.05,0,0,0.05,0,0)" xlink:href="#F"/><use transform="matrix(0.05,0,0,0.05,8.950000000000001,0)" xlink:href="#H"/><use transform="matrix(0.05,0,0,0.05,18.950000000000003,0)" xlink:href="#G"/><use transform="matrix(0.05,0,0,0.05,24.900000000000002,0)" xlink:href="#K"/><use transform="matrix(0.05,0,0,0.05,34.900000000000006,0)" xlink:href="#M"/><use transform="matrix(0.05,0,0,0.05,44.900000000000006,0)" xlink:href="#P"/><use transform="matrix(0.05,0,0,0.05,49.900000000000006,0)" xlink:href="#X"/></g><g id="r"><use transform="matrix(0.05,0,0,0.05,0,0)" xlink:href="#Y"/><use transform="matrix(0.05,0,0,0.05,14.950000000000001,0)" xlink:href="#Q"/><use transform="matrix(0.05,0,0,0.05,24.950000000000003,0)" xlink:href="#N"/><use transform="matrix(0.05,0,0,0.05,34.95,0)" xlink:href="#M"/><use transform="matrix(0.05,0,0,0.05,44.95,0)" xlink:href="#aa"/><use transform="matrix(0.05,0,0,0.05,48.900000000000006,0)" xlink:href="#X"/></g><path fill="#333" d="M190 0L58-211 59 0H30v-248h39L202-35l-2-213h31V0h-41" id="aj"/><g id="s"><use transform="matrix(0.05,0,0,0.05,0,0)" xlink:href="#aj"/><use transform="matrix(0.05,0,0,0.05,12.950000000000001,0)" xlink:href="#aj"/></g><path fill="#333" d="M16-82v-28h88v28H16" id="ak"/><use transform="matrix(0.05,0,0,0.05,0,0)" xlink:href="#ak" id="t"/><g id="u"><use transform="matrix(0.05,0,0,0.05,0,0)" xlink:href="#M"/><use transform="matrix(0.05,0,0,0.05,10,0)" xlink:href="#J"/><use transform="matrix(0.05,0,0,0.05,20,0)" xlink:href="#X"/><use transform="matrix(0.05,0,0,0.05,29,0)" xlink:href="#M"/><use transform="matrix(0.05,0,0,0.05,39,0)" xlink:href="#Y"/><use transform="matrix(0.05,0,0,0.05,53.95,0)" xlink:href="#Z"/><use transform="matrix(0.05,0,0,0.05,63.95,0)" xlink:href="#aa"/><use transform="matrix(0.05,0,0,0.05,67.9,0)" xlink:href="#M"/></g><g id="v"><use transform="matrix(0.05,0,0,0.05,0,0)" xlink:href="#O"/><use transform="matrix(0.05,0,0,0.05,9,0)" xlink:href="#Q"/><use transform="matrix(0.05,0,0,0.05,19,0)" xlink:href="#J"/><use transform="matrix(0.05,0,0,0.05,29,0)" xlink:href="#X"/><use transform="matrix(0.05,0,0,0.05,38,0)" xlink:href="#P"/><use transform="matrix(0.05,0,0,0.05,43,0)" xlink:href="#I"/><use transform="matrix(0.05,0,0,0.05,46.95,0)" xlink:href="#P"/><use transform="matrix(0.05,0,0,0.05,51.95,0)" xlink:href="#ai"/><use transform="matrix(0.05,0,0,0.05,61.95,0)" xlink:href="#M"/><use transform="matrix(0.05,0,0,0.05,71.95,0)" xlink:href="#J"/><use transform="matrix(0.05,0,0,0.05,81.95,0)" xlink:href="#P"/><use transform="matrix(0.05,0,0,0.05,86.95,0)" xlink:href="#X"/></g><g id="w"><use transform="matrix(0.05,0,0,0.05,0,0)" xlink:href="#W"/><use transform="matrix(0.05,0,0,0.05,12,0)" xlink:href="#J"/><use transform="matrix(0.05,0,0,0.05,22,0)" xlink:href="#X"/><use transform="matrix(0.05,0,0,0.05,31,0)" xlink:href="#M"/><use transform="matrix(0.05,0,0,0.05,41,0)" xlink:href="#Y"/><use transform="matrix(0.05,0,0,0.05,55.95,0)" xlink:href="#Z"/><use transform="matrix(0.05,0,0,0.05,65.95,0)" xlink:href="#aa"/><use transform="matrix(0.05,0,0,0.05,69.9,0)" xlink:href="#M"/></g><g id="x"><use transform="matrix(0.05,0,0,0.05,0,0)" xlink:href="#Y"/><use transform="matrix(0.05,0,0,0.05,14.950000000000001,0)" xlink:href="#Q"/><use transform="matrix(0.05,0,0,0.05,24.950000000000003,0)" xlink:href="#N"/><use transform="matrix(0.05,0,0,0.05,34.95,0)" xlink:href="#M"/><use transform="matrix(0.05,0,0,0.05,44.95,0)" xlink:href="#aa"/></g><g id="y"><use transform="matrix(0.05,0,0,0.05,0,0)" xlink:href="#U"/><use transform="matrix(0.05,0,0,0.05,12.950000000000001,0)" xlink:href="#H"/><use transform="matrix(0.05,0,0,0.05,22.950000000000003,0)" xlink:href="#P"/><use transform="matrix(0.05,0,0,0.05,27.950000000000003,0)" xlink:href="#H"/><use transform="matrix(0.05,0,0,0.05,37.95,0)" xlink:href="#X"/><use transform="matrix(0.05,0,0,0.05,46.95,0)" xlink:href="#M"/><use transform="matrix(0.05,0,0,0.05,56.95,0)" xlink:href="#P"/></g><g id="z"><use transform="matrix(0.05,0,0,0.05,0,0)" xlink:href="#ac"/><use transform="matrix(0.05,0,0,0.05,10,0)" xlink:href="#G"/><use transform="matrix(0.05,0,0,0.05,15.949999999999998,0)" xlink:href="#M"/><use transform="matrix(0.05,0,0,0.05,25.950000000000003,0)" xlink:href="#N"/><use transform="matrix(0.05,0,0,0.05,35.95,0)" xlink:href="#I"/><use transform="matrix(0.05,0,0,0.05,39.900000000000006,0)" xlink:href="#O"/><use transform="matrix(0.05,0,0,0.05,48.900000000000006,0)" xlink:href="#P"/><use transform="matrix(0.05,0,0,0.05,53.900000000000006,0)" xlink:href="#ah"/><use transform="matrix(0.05,0,0,0.05,63.900000000000006,0)" xlink:href="#ac"/><use transform="matrix(0.05,0,0,0.05,73.9,0)" xlink:href="#G"/><use transform="matrix(0.05,0,0,0.05,79.85000000000001,0)" xlink:href="#Q"/><use transform="matrix(0.05,0,0,0.05,89.85000000000001,0)" xlink:href="#Z"/><use transform="matrix(0.05,0,0,0.05,99.85000000000001,0)" xlink:href="#H"/><use transform="matrix(0.05,0,0,0.05,109.85000000000001,0)" xlink:href="#ae"/><use transform="matrix(0.05,0,0,0.05,115.80000000000001,0)" xlink:href="#af"/><use transform="matrix(0.05,0,0,0.05,121.75,0)" xlink:href="#ag"/></g><g id="A"><use transform="matrix(0.05,0,0,0.05,0,0)" xlink:href="#ac"/><use transform="matrix(0.05,0,0,0.05,10,0)" xlink:href="#G"/><use transform="matrix(0.05,0,0,0.05,15.949999999999998,0)" xlink:href="#M"/><use transform="matrix(0.05,0,0,0.05,25.950000000000003,0)" xlink:href="#N"/><use transform="matrix(0.05,0,0,0.05,35.95,0)" xlink:href="#I"/><use transform="matrix(0.05,0,0,0.05,39.900000000000006,0)" xlink:href="#O"/><use transform="matrix(0.05,0,0,0.05,48.900000000000006,0)" xlink:href="#P"/><use transform="matrix(0.05,0,0,0.05,53.900000000000006,0)" xlink:href="#ah"/><use transform="matrix(0.05,0,0,0.05,63.900000000000006,0)" xlink:href="#ac"/><use transform="matrix(0.05,0,0,0.05,73.9,0)" xlink:href="#G"/><use transform="matrix(0.05,0,0,0.05,79.85000000000001,0)" xlink:href="#Q"/><use transform="matrix(0.05,0,0,0.05,89.85000000000001,0)" xlink:href="#Z"/><use transform="matrix(0.05,0,0,0.05,99.85000000000001,0)" xlink:href="#H"/><use transform="matrix(0.05,0,0,0.05,109.85000000000001,0)" xlink:href="#ah"/><use transform="matrix(0.05,0,0,0.05,119.85000000000001,0)" xlink:href="#P"/><use transform="matrix(0.05,0,0,0.05,124.85000000000001,0)" xlink:href="#Q"/><use transform="matrix(0.05,0,0,0.05,134.85000000000002,0)" xlink:href="#ac"/><use transform="matrix(0.05,0,0,0.05,144.85000000000002,0)" xlink:href="#aa"/><use transform="matrix(0.05,0,0,0.05,148.8,0)" xlink:href="#ah"/><use transform="matrix(0.05,0,0,0.05,158.8,0)" xlink:href="#ad"/><use transform="matrix(0.05,0,0,0.05,163.8,0)" xlink:href="#H"/><use transform="matrix(0.05,0,0,0.05,173.8,0)" xlink:href="#X"/><use transform="matrix(0.05,0,0,0.05,182.8,0)" xlink:href="#P"/><use transform="matrix(0.05,0,0,0.05,187.8,0)" xlink:href="#ae"/><use transform="matrix(0.05,0,0,0.05,193.75,0)" xlink:href="#af"/></g><g id="B"><use transform="matrix(0.05,0,0,0.05,0,0)" xlink:href="#ac"/><use transform="matrix(0.05,0,0,0.05,10,0)" xlink:href="#G"/><use transform="matrix(0.05,0,0,0.05,15.949999999999998,0)" xlink:href="#Q"/><use transform="matrix(0.05,0,0,0.05,25.950000000000003,0)" xlink:href="#Z"/><use transform="matrix(0.05,0,0,0.05,35.95,0)" xlink:href="#H"/><use transform="matrix(0.05,0,0,0.05,45.95,0)" xlink:href="#Z"/><use transform="matrix(0.05,0,0,0.05,55.95,0)" xlink:href="#I"/><use transform="matrix(0.05,0,0,0.05,59.900000000000006,0)" xlink:href="#aa"/><use transform="matrix(0.05,0,0,0.05,63.85,0)" xlink:href="#I"/><use transform="matrix(0.05,0,0,0.05,67.80000000000001,0)" xlink:href="#X"/><use transform="matrix(0.05,0,0,0.05,76.80000000000001,0)" xlink:href="#P"/><use transform="matrix(0.05,0,0,0.05,81.80000000000001,0)" xlink:href="#I"/><use transform="matrix(0.05,0,0,0.05,85.75000000000001,0)" xlink:href="#O"/></g><g id="C"><use transform="matrix(0.05,0,0,0.05,0,0)" xlink:href="#Q"/><use transform="matrix(0.05,0,0,0.05,10,0)" xlink:href="#ai"/><use transform="matrix(0.05,0,0,0.05,20,0)" xlink:href="#P"/><use transform="matrix(0.05,0,0,0.05,25,0)" xlink:href="#ac"/><use transform="matrix(0.05,0,0,0.05,35,0)" xlink:href="#ai"/><use transform="matrix(0.05,0,0,0.05,45,0)" xlink:href="#P"/><use transform="matrix(0.05,0,0,0.05,50,0)" xlink:href="#X"/></g><g id="D"><use transform="matrix(0.05,0,0,0.05,0,0)" xlink:href="#ab"/><use transform="matrix(0.05,0,0,0.05,12.950000000000001,0)" xlink:href="#G"/><use transform="matrix(0.05,0,0,0.05,18.900000000000002,0)" xlink:href="#M"/><use transform="matrix(0.05,0,0,0.05,28.900000000000002,0)" xlink:href="#H"/><use transform="matrix(0.05,0,0,0.05,38.900000000000006,0)" xlink:href="#P"/><use transform="matrix(0.05,0,0,0.05,43.900000000000006,0)" xlink:href="#M"/></g><g id="E"><use transform="matrix(0.05,0,0,0.05,0,0)" xlink:href="#ac"/><use transform="matrix(0.05,0,0,0.05,10,0)" xlink:href="#G"/><use transform="matrix(0.05,0,0,0.05,15.949999999999998,0)" xlink:href="#M"/><use transform="matrix(0.05,0,0,0.05,25.950000000000003,0)" xlink:href="#N"/><use transform="matrix(0.05,0,0,0.05,35.95,0)" xlink:href="#I"/><use transform="matrix(0.05,0,0,0.05,39.900000000000006,0)" xlink:href="#O"/><use transform="matrix(0.05,0,0,0.05,48.900000000000006,0)" xlink:href="#P"/><use transform="matrix(0.05,0,0,0.05,53.900000000000006,0)" xlink:href="#I"/><use transform="matrix(0.05,0,0,0.05,57.85,0)" xlink:href="#Q"/><use transform="matrix(0.05,0,0,0.05,67.85000000000001,0)" xlink:href="#J"/><use transform="matrix(0.05,0,0,0.05,77.85000000000001,0)" xlink:href="#X"/></g></defs></g></svg>